<?xml version="1.0" encoding="UTF-8"?>
<svg width="2275px" height="1777px" viewBox="0 0 2275 1777" version="1.1" xmlns="http://www.w3.org/2000/svg" xmlns:xlink="http://www.w3.org/1999/xlink">
    <!-- Generator: Sketch 55.2 (78181) - https://sketchapp.com -->
    <title>Artboard Copy 7</title>
    <desc>Created with Sketch.</desc>
    <defs>
        <linearGradient x1="18.2042255%" y1="70.8401464%" x2="90.9828901%" y2="-8.6815%" id="linearGradient-1">
            <stop stop-color="#000000" offset="0%"></stop>
            <stop stop-color="#FF6D16" offset="100%"></stop>
        </linearGradient>
    </defs>
    <g id="Artboard-Copy-7" stroke="none" stroke-width="1" fill="none" fill-rule="evenodd">
        <rect id="Rectangle" fill="#FFFFFF" x="62" y="69" width="2151" height="1639" rx="50"></rect>
        <path d="M376.85,627.8 L376.85,656 L362.55,656 L362.55,586 L401.35,586 L401.35,598.1 L376.85,598.1 L376.85,615.7 L401.35,615.7 L401.35,627.8 L376.85,627.8 Z M422.75,633.2 C423.283336,636.800018 424.666655,639.799988 426.9,642.2 C429.133344,644.600012 432.149981,645.8 435.95,645.8 C439.350017,645.8 442.04999,645.13334 444.05,643.8 C446.05001,642.46666 447.916658,640.533346 449.65,638 L458.95,644.3 C455.949985,648.700022 452.616685,651.94999 448.95,654.05 C445.283315,656.150011 440.616695,657.2 434.95,657.2 C430.94998,657.2 427.316683,656.53334 424.05,655.2 C420.783317,653.86666 417.983345,652.016679 415.65,649.65 C413.316655,647.283322 411.516673,644.450016 410.25,641.15 C408.983327,637.849984 408.35,634.233353 408.35,630.3 C408.35,626.29998 409.033326,622.600017 410.4,619.2 C411.766673,615.799983 413.649988,612.833346 416.05,610.3 C418.450012,607.766654 421.26665,605.783341 424.5,604.35 C427.733349,602.916659 431.249981,602.2 435.05,602.2 C438.716685,602.2 442.099984,602.816661 445.2,604.05 C448.300015,605.28334 450.983322,606.966656 453.25,609.1 C455.516678,611.233344 457.283327,613.799985 458.55,616.8 C459.816673,619.800015 460.45,623.033316 460.45,626.5 C460.45,627.566672 460.383334,628.683328 460.25,629.85 C460.116666,631.016673 459.950001,632.133328 459.75,633.2 L422.75,633.2 Z M445.95,623.5 C445.816666,620.299984 444.766676,617.8 442.8,616 C440.833323,614.199991 438.383348,613.3 435.45,613.3 C432.049983,613.3 429.383343,614.24999 427.45,616.15 C425.516657,618.050009 424.183337,620.499985 423.45,623.5 L445.95,623.5 Z M502.65,656 L501.55,651.5 C499.816658,653.633344 497.700012,655.116662 495.2,655.95 C492.699987,656.783338 490.050014,657.2 487.25,657.2 C484.783321,657.2 482.416678,656.833337 480.15,656.1 C477.883322,655.366663 475.866675,654.300007 474.1,652.9 C472.333324,651.499993 470.933338,649.766677 469.9,647.7 C468.866661,645.633323 468.35,643.233347 468.35,640.5 C468.35,637.299984 469.033326,634.600011 470.4,632.4 C471.766673,630.199989 473.533322,628.450006 475.7,627.15 C477.866677,625.849993 480.316653,624.91667 483.05,624.35 C485.783347,623.783331 488.516653,623.5 491.25,623.5 C494.116681,623.5 497.283316,623.866663 500.75,624.6 L500.75,623.8 C500.75,620.46665 499.983341,617.866676 498.45,616 C496.916659,614.133324 494.216686,613.2 490.35,613.2 C487.349985,613.2 484.533346,613.666662 481.9,614.6 C479.266653,615.533338 476.783345,616.599994 474.45,617.8 L470.65,607.6 C474.050017,605.933325 477.683314,604.616671 481.55,603.65 C485.416686,602.683329 489.316647,602.2 493.25,602.2 C500.58337,602.2 506.033315,604.183313 509.6,608.15 C513.166684,612.116687 514.95,617.533299 514.95,624.4 L514.95,656 L502.65,656 Z M500.75,633.1 C498.016653,632.499997 495.616677,632.2 493.55,632.2 C492.21666,632.2 490.88334,632.333332 489.55,632.6 C488.21666,632.866668 487.016672,633.316664 485.95,633.95 C484.883328,634.583336 484.000003,635.416662 483.3,636.45 C482.599996,637.483338 482.25,638.766659 482.25,640.3 C482.25,642.633345 483.049992,644.383327 484.65,645.55 C486.25,646.716672 488.116656,647.3 490.25,647.3 C492.316677,647.3 494.199991,646.883338 495.9,646.05 C497.600008,645.216662 499.216659,644.13334 500.75,642.8 L500.75,633.1 Z M543.05,615.2 L543.05,637.9 C543.05,638.633337 543.116666,639.366663 543.25,640.1 C543.450001,641.633341 543.88333,642.849995 544.55,643.75 C545.21667,644.650005 546.316659,645.1 547.85,645.1 C548.983339,645.1 549.983329,644.966668 550.85,644.7 C551.716671,644.433332 552.616662,644.066669 553.55,643.6 L557.95,654.1 C556.216658,655.100005 554.216678,655.866664 551.95,656.4 C549.683322,656.933336 547.516677,657.2 545.45,657.2 C541.316646,657.2 537.91668,656.166677 535.25,654.1 C532.58332,652.033323 530.783338,649.300017 529.85,645.9 C529.449998,644.56666 529.183334,643.150008 529.05,641.65 C528.916666,640.149993 528.85,638.633341 528.85,637.1 L528.85,615.2 L522.55,615.2 L522.55,603.4 L528.85,603.4 L531.05,591.8 L543.05,591.8 L543.05,603.4 L556.45,603.4 L556.45,615.2 L543.05,615.2 Z M601.75,656 L600.65,648.8 C598.516656,651.800015 596.000014,653.949994 593.1,655.25 C590.199985,656.550006 587.283348,657.2 584.35,657.2 C581.483319,657.2 578.850012,656.583339 576.45,655.35 C574.049988,654.11666 572.016675,652.433344 570.35,650.3 C568.283323,647.63332 566.983336,644.650016 566.45,641.35 C565.916664,638.049984 565.65,634.500019 565.65,630.7 L565.65,603.4 L579.85,603.4 L579.85,630 C579.85,631.933343 579.933332,633.916657 580.1,635.95 C580.266667,637.983344 580.716663,639.766659 581.45,641.3 C582.11667,642.63334 583.06666,643.58333 584.3,644.15 C585.533339,644.716669 586.916659,645 588.45,645 C590.583344,645 592.683323,644.416673 594.75,643.25 C596.816677,642.083327 598.51666,640.433344 599.85,638.3 L599.85,603.4 L614.05,603.4 L614.05,656 L601.75,656 Z M641.25,610.4 C642.783341,607.933321 644.566656,605.950007 646.6,604.45 C648.633343,602.949993 650.949987,602.2 653.55,602.2 C654.88334,602.2 656.116661,602.316665 657.25,602.55 C658.383339,602.783335 659.416662,603.066665 660.35,603.4 L656.95,615.8 C655.416659,614.999996 653.750009,614.6 651.95,614.6 C649.883323,614.6 647.983342,615.133328 646.25,616.2 C644.516658,617.266672 643.116672,618.666658 642.05,620.4 L642.05,656 L627.85,656 L627.85,603.4 L640.15,603.4 L641.25,610.4 Z M676.05,633.2 C676.583336,636.800018 677.966655,639.799988 680.2,642.2 C682.433344,644.600012 685.449981,645.8 689.25,645.8 C692.650017,645.8 695.34999,645.13334 697.35,643.8 C699.35001,642.46666 701.216658,640.533346 702.95,638 L712.25,644.3 C709.249985,648.700022 705.916685,651.94999 702.25,654.05 C698.583315,656.150011 693.916695,657.2 688.25,657.2 C684.24998,657.2 680.616683,656.53334 677.35,655.2 C674.083317,653.86666 671.283345,652.016679 668.95,649.65 C666.616655,647.283322 664.816673,644.450016 663.55,641.15 C662.283327,637.849984 661.65,634.233353 661.65,630.3 C661.65,626.29998 662.333326,622.600017 663.7,619.2 C665.066673,615.799983 666.949988,612.833346 669.35,610.3 C671.750012,607.766654 674.56665,605.783341 677.8,604.35 C681.033349,602.916659 684.549981,602.2 688.35,602.2 C692.016685,602.2 695.399984,602.816661 698.5,604.05 C701.600015,605.28334 704.283322,606.966656 706.55,609.1 C708.816678,611.233344 710.583327,613.799985 711.85,616.8 C713.116673,619.800015 713.75,623.033316 713.75,626.5 C713.75,627.566672 713.683334,628.683328 713.55,629.85 C713.416666,631.016673 713.250001,632.133328 713.05,633.2 L676.05,633.2 Z M699.25,623.5 C699.116666,620.299984 698.066676,617.8 696.1,616 C694.133323,614.199991 691.683348,613.3 688.75,613.3 C685.349983,613.3 682.683343,614.24999 680.75,616.15 C678.816657,618.050009 677.483337,620.499985 676.75,623.5 L699.25,623.5 Z M762.35,656 L761.15,649.5 C760.216662,650.966674 759.100006,652.183329 757.8,653.15 C756.499993,654.116671 755.13334,654.899997 753.7,655.5 C752.266659,656.100003 750.783341,656.533332 749.25,656.8 C747.716659,657.066668 746.28334,657.2 744.95,657.2 C741.483316,657.2 738.250015,656.466674 735.25,655 C732.249985,653.533326 729.650011,651.550012 727.45,649.05 C725.249989,646.549988 723.533339,643.616684 722.3,640.25 C721.06666,636.883316 720.45,633.300019 720.45,629.5 C720.45,625.833315 721.06666,622.33335 722.3,619 C723.533339,615.66665 725.249989,612.766679 727.45,610.3 C729.650011,607.833321 732.249985,605.866674 735.25,604.4 C738.250015,602.933326 741.549982,602.2 745.15,602.2 C747.683346,602.2 750.366652,602.683329 753.2,603.65 C756.033347,604.616671 758.45,606.233322 760.45,608.5 L760.45,581 L774.65,581 L774.65,656 L762.35,656 Z M760.45,620.1 C758.649991,617.966656 756.716677,616.483338 754.65,615.65 C752.583323,614.816663 750.450011,614.4 748.25,614.4 C745.983322,614.4 744.016675,614.866662 742.35,615.8 C740.683325,616.733338 739.300005,617.933326 738.2,619.4 C737.099994,620.866674 736.283336,622.516657 735.75,624.35 C735.216664,626.183342 734.95,628.033324 734.95,629.9 C734.95,631.833343 735.249997,633.699991 735.85,635.5 C736.45,637.300009 737.316661,638.9 738.45,640.3 C739.583339,641.700007 740.966658,642.833329 742.6,643.7 C744.233341,644.566671 746.04999,645 748.05,645 C750.316678,645 752.566655,644.500005 754.8,643.5 C757.033344,642.499995 758.916659,640.700013 760.45,638.1 L760.45,620.1 Z M851.75,656 L850.55,649.5 C849.616662,650.966674 848.500006,652.183329 847.2,653.15 C845.899993,654.116671 844.53334,654.899997 843.1,655.5 C841.666659,656.100003 840.183341,656.533332 838.65,656.8 C837.116659,657.066668 835.68334,657.2 834.35,657.2 C830.883316,657.2 827.650015,656.466674 824.65,655 C821.649985,653.533326 819.050011,651.550012 816.85,649.05 C814.649989,646.549988 812.933339,643.616684 811.7,640.25 C810.46666,636.883316 809.85,633.300019 809.85,629.5 C809.85,625.833315 810.46666,622.33335 811.7,619 C812.933339,615.66665 814.649989,612.766679 816.85,610.3 C819.050011,607.833321 821.649985,605.866674 824.65,604.4 C827.650015,602.933326 830.949982,602.2 834.55,602.2 C837.083346,602.2 839.766652,602.683329 842.6,603.65 C845.433347,604.616671 847.85,606.233322 849.85,608.5 L849.85,581 L864.05,581 L864.05,656 L851.75,656 Z M849.85,620.1 C848.049991,617.966656 846.116677,616.483338 844.05,615.65 C841.983323,614.816663 839.850011,614.4 837.65,614.4 C835.383322,614.4 833.416675,614.866662 831.75,615.8 C830.083325,616.733338 828.700005,617.933326 827.6,619.4 C826.499994,620.866674 825.683336,622.516657 825.15,624.35 C824.616664,626.183342 824.35,628.033324 824.35,629.9 C824.35,631.833343 824.649997,633.699991 825.25,635.5 C825.85,637.300009 826.716661,638.9 827.85,640.3 C828.983339,641.700007 830.366658,642.833329 832,643.7 C833.633341,644.566671 835.44999,645 837.45,645 C839.716678,645 841.966655,644.500005 844.2,643.5 C846.433344,642.499995 848.316659,640.700013 849.85,638.1 L849.85,620.1 Z M901.85,602.2 C905.85002,602.2 909.533316,602.899993 912.9,604.3 C916.266683,605.7 919.166654,607.633321 921.6,610.1 C924.033345,612.566679 925.933326,615.483317 927.3,618.85 C928.666673,622.216684 929.35,625.833314 929.35,629.7 C929.35,633.566686 928.666673,637.183317 927.3,640.55 C925.933326,643.916683 924.033345,646.833321 921.6,649.3 C919.166654,651.766679 916.266683,653.7 912.9,655.1 C909.533316,656.500007 905.85002,657.2 901.85,657.2 C897.84998,657.2 894.150017,656.500007 890.75,655.1 C887.349983,653.7 884.433345,651.766679 882,649.3 C879.566654,646.833321 877.666673,643.916683 876.3,640.55 C874.933326,637.183317 874.25,633.566686 874.25,629.7 C874.25,625.833314 874.933326,622.216684 876.3,618.85 C877.666673,615.483317 879.566654,612.566679 882,610.1 C884.433345,607.633321 887.349983,605.7 890.75,604.3 C894.150017,602.899993 897.84998,602.2 901.85,602.2 Z M914.85,629.7 C914.85,627.566656 914.533336,625.566676 913.9,623.7 C913.266663,621.833324 912.383339,620.216673 911.25,618.85 C910.116661,617.483326 908.75,616.4 907.15,615.6 C905.549992,614.799996 903.783343,614.4 901.85,614.4 C899.916657,614.4 898.133341,614.799996 896.5,615.6 C894.866658,616.4 893.483339,617.483326 892.35,618.85 C891.216661,620.216673 890.333336,621.833324 889.7,623.7 C889.066663,625.566676 888.75,627.566656 888.75,629.7 C888.75,631.833344 889.066663,633.833324 889.7,635.7 C890.333336,637.566676 891.216661,639.183327 892.35,640.55 C893.483339,641.916674 894.866658,642.999996 896.5,643.8 C898.133341,644.600004 899.916657,645 901.85,645 C903.783343,645 905.549992,644.600004 907.15,643.8 C908.75,642.999996 910.116661,641.916674 911.25,640.55 C912.383339,639.183327 913.266663,637.566676 913.9,635.7 C914.533336,633.833324 914.85,631.833344 914.85,629.7 Z M1004.75,656 L1004.75,629.4 C1004.75,627.466657 1004.66667,625.483344 1004.5,623.45 C1004.33333,621.416657 1003.88334,619.633341 1003.15,618.1 C1002.48333,616.76666 1001.55,615.816669 1000.35,615.25 C999.149994,614.683331 997.750008,614.4 996.15,614.4 C994.283324,614.4 992.433342,614.916662 990.6,615.95 C988.766657,616.983338 987.18334,618.466657 985.85,620.4 C985.983334,621.73334 986.099999,623.083326 986.2,624.45 C986.3,625.816673 986.35,627.233326 986.35,628.7 L986.35,656 L972.15,656 L972.15,629.4 C972.15,627.466657 972.083334,625.466677 971.95,623.4 C971.816666,621.333323 971.350004,619.533341 970.55,618 C969.88333,616.733327 968.983339,615.816669 967.85,615.25 C966.716661,614.683331 965.383341,614.4 963.85,614.4 C962.116658,614.4 960.333342,614.883329 958.5,615.85 C956.666657,616.816671 955.08334,618.066659 953.75,619.6 L953.75,656 L939.55,656 L939.55,603.4 L951.85,603.4 L952.85,609.8 C954.983344,607.13332 957.399986,605.2 960.1,604 C962.800013,602.799994 965.449987,602.2 968.05,602.2 C971.050015,602.2 973.949986,602.999992 976.75,604.6 C979.550014,606.2 981.61666,608.33332 982.95,611 C984.150006,609.266658 985.483326,607.833339 986.95,606.7 C988.416674,605.566661 989.899992,604.66667 991.4,604 C992.900007,603.33333 994.433325,602.866668 996,602.6 C997.566674,602.333332 999.05,602.2 1000.45,602.2 C1003.25001,602.2 1005.83332,602.799994 1008.2,604 C1010.56668,605.2 1012.58332,606.866656 1014.25,609 C1016.31668,611.66668 1017.61666,614.66665 1018.15,618 C1018.68334,621.33335 1018.95,624.899981 1018.95,628.7 L1018.95,656 L1004.75,656 Z M1064.25,656 L1063.15,651.5 C1061.41666,653.633344 1059.30001,655.116662 1056.8,655.95 C1054.29999,656.783338 1051.65001,657.2 1048.85,657.2 C1046.38332,657.2 1044.01668,656.833337 1041.75,656.1 C1039.48332,655.366663 1037.46668,654.300007 1035.7,652.9 C1033.93332,651.499993 1032.53334,649.766677 1031.5,647.7 C1030.46666,645.633323 1029.95,643.233347 1029.95,640.5 C1029.95,637.299984 1030.63333,634.600011 1032,632.4 C1033.36667,630.199989 1035.13332,628.450006 1037.3,627.15 C1039.46668,625.849993 1041.91665,624.91667 1044.65,624.35 C1047.38335,623.783331 1050.11665,623.5 1052.85,623.5 C1055.71668,623.5 1058.88332,623.866663 1062.35,624.6 L1062.35,623.8 C1062.35,620.46665 1061.58334,617.866676 1060.05,616 C1058.51666,614.133324 1055.81669,613.2 1051.95,613.2 C1048.94998,613.2 1046.13335,613.666662 1043.5,614.6 C1040.86665,615.533338 1038.38334,616.599994 1036.05,617.8 L1032.25,607.6 C1035.65002,605.933325 1039.28331,604.616671 1043.15,603.65 C1047.01669,602.683329 1050.91665,602.2 1054.85,602.2 C1062.18337,602.2 1067.63332,604.183313 1071.2,608.15 C1074.76668,612.116687 1076.55,617.533299 1076.55,624.4 L1076.55,656 L1064.25,656 Z M1062.35,633.1 C1059.61665,632.499997 1057.21668,632.2 1055.15,632.2 C1053.81666,632.2 1052.48334,632.333332 1051.15,632.6 C1049.81666,632.866668 1048.61667,633.316664 1047.55,633.95 C1046.48333,634.583336 1045.6,635.416662 1044.9,636.45 C1044.2,637.483338 1043.85,638.766659 1043.85,640.3 C1043.85,642.633345 1044.64999,644.383327 1046.25,645.55 C1047.85,646.716672 1049.71666,647.3 1051.85,647.3 C1053.91668,647.3 1055.79999,646.883338 1057.5,646.05 C1059.20001,645.216662 1060.81666,644.13334 1062.35,642.8 L1062.35,633.1 Z M1089.85,656 L1089.85,603.4 L1104.05,603.4 L1104.05,656 L1089.85,656 Z M1089.85,596.1 L1089.85,584 L1104.05,584 L1104.05,596.1 L1089.85,596.1 Z M1130.15,603.4 L1131.25,610.6 C1133.38334,607.599985 1135.89999,605.450006 1138.8,604.15 C1141.70001,602.849993 1144.61665,602.2 1147.55,602.2 C1150.41668,602.2 1153.04999,602.816661 1155.45,604.05 C1157.85001,605.28334 1159.88332,606.966656 1161.55,609.1 C1163.61668,611.76668 1164.91666,614.749983 1165.45,618.05 C1165.98334,621.350017 1166.25,624.899981 1166.25,628.7 L1166.25,656 L1152.05,656 L1152.05,629.4 C1152.05,627.466657 1151.96667,625.483344 1151.8,623.45 C1151.63333,621.416657 1151.18334,619.633341 1150.45,618.1 C1149.78333,616.76666 1148.83334,615.816669 1147.6,615.25 C1146.36666,614.683331 1144.98334,614.4 1143.45,614.4 C1141.31666,614.4 1139.21668,614.983327 1137.15,616.15 C1135.08332,617.316672 1133.38334,618.966656 1132.05,621.1 L1132.05,656 L1117.85,656 L1117.85,603.4 L1130.15,603.4 Z M1208.25,617.7 C1206.91666,616.499994 1205.35001,615.466671 1203.55,614.6 C1201.74999,613.733329 1199.85001,613.3 1197.85,613.3 C1196.51666,613.3 1195.33334,613.649997 1194.3,614.35 C1193.26666,615.050004 1192.75,616.033327 1192.75,617.3 C1192.75,618.966675 1193.58332,620.283329 1195.25,621.25 C1196.91667,622.216671 1198.84999,623.166662 1201.05,624.1 C1202.71667,624.833337 1204.46666,625.616662 1206.3,626.45 C1208.13334,627.283338 1209.79999,628.299994 1211.3,629.5 C1212.80001,630.7 1214.03333,632.183325 1215,633.95 C1215.96667,635.716676 1216.45,637.833321 1216.45,640.3 C1216.45,643.233348 1215.88334,645.749989 1214.75,647.85 C1213.61666,649.95001 1212.10001,651.7 1210.2,653.1 C1208.29999,654.500007 1206.13335,655.53333 1203.7,656.2 C1201.26665,656.86667 1198.78335,657.2 1196.25,657.2 C1192.11665,657.2 1188.28335,656.433341 1184.75,654.9 C1181.21665,653.366659 1177.98335,651.133348 1175.05,648.2 L1183.15,639.8 C1185.15001,641.733343 1187.08332,643.249994 1188.95,644.35 C1190.81668,645.450005 1193.01665,646 1195.55,646 C1196.28334,646 1197.05,645.916668 1197.85,645.75 C1198.65,645.583332 1199.36666,645.300002 1200,644.9 C1200.63334,644.499998 1201.16666,644.01667 1201.6,643.45 C1202.03334,642.883331 1202.25,642.2 1202.25,641.4 C1202.25,640.466662 1201.96667,639.650004 1201.4,638.95 C1200.83333,638.249996 1200.1,637.616669 1199.2,637.05 C1198.3,636.48333 1197.23334,635.950002 1196,635.45 C1194.76666,634.949997 1193.51667,634.400003 1192.25,633.8 C1190.64999,633.13333 1189.06667,632.383338 1187.5,631.55 C1185.93333,630.716662 1184.53334,629.7 1183.3,628.5 C1182.06666,627.299994 1181.05,625.883342 1180.25,624.25 C1179.45,622.616658 1179.05,620.633345 1179.05,618.3 C1179.05,615.63332 1179.58333,613.30001 1180.65,611.3 C1181.71667,609.29999 1183.11666,607.616673 1184.85,606.25 C1186.58334,604.883327 1188.58332,603.86667 1190.85,603.2 C1193.11668,602.53333 1195.44999,602.2 1197.85,602.2 C1201.38335,602.2 1204.68332,602.766661 1207.75,603.9 C1210.81668,605.033339 1213.58332,606.766655 1216.05,609.1 L1208.25,617.7 Z M1281.55,593.7 C1279.34999,592.566661 1276.91668,592 1274.25,592 C1273.11666,592 1272.2,592.133332 1271.5,592.4 C1270.8,592.666668 1270.25,593.066664 1269.85,593.6 C1269.31666,594.333337 1268.95,595.249994 1268.75,596.35 C1268.55,597.450005 1268.45,598.66666 1268.45,600 L1268.45,603.4 L1281.55,603.4 L1281.55,615.2 L1268.45,615.2 L1268.45,656 L1254.25,656 L1254.25,615.2 L1248.55,615.2 L1248.55,603.4 L1254.25,603.4 L1254.25,599.2 C1254.25,596.199985 1254.55,593.533345 1255.15,591.2 C1255.75,588.866655 1256.71666,586.866675 1258.05,585.2 C1259.51667,583.399991 1261.44999,582.050005 1263.85,581.15 C1266.25001,580.249996 1269.24998,579.8 1272.85,579.8 C1275.11668,579.8 1277.34999,580.066664 1279.55,580.6 C1281.75001,581.133336 1283.88332,581.866662 1285.95,582.8 L1281.55,593.7 Z M1312.55,602.2 C1316.55002,602.2 1320.23332,602.899993 1323.6,604.3 C1326.96668,605.7 1329.86665,607.633321 1332.3,610.1 C1334.73335,612.566679 1336.63333,615.483317 1338,618.85 C1339.36667,622.216684 1340.05,625.833314 1340.05,629.7 C1340.05,633.566686 1339.36667,637.183317 1338,640.55 C1336.63333,643.916683 1334.73335,646.833321 1332.3,649.3 C1329.86665,651.766679 1326.96668,653.7 1323.6,655.1 C1320.23332,656.500007 1316.55002,657.2 1312.55,657.2 C1308.54998,657.2 1304.85002,656.500007 1301.45,655.1 C1298.04998,653.7 1295.13335,651.766679 1292.7,649.3 C1290.26665,646.833321 1288.36667,643.916683 1287,640.55 C1285.63333,637.183317 1284.95,633.566686 1284.95,629.7 C1284.95,625.833314 1285.63333,622.216684 1287,618.85 C1288.36667,615.483317 1290.26665,612.566679 1292.7,610.1 C1295.13335,607.633321 1298.04998,605.7 1301.45,604.3 C1304.85002,602.899993 1308.54998,602.2 1312.55,602.2 Z M1325.55,629.7 C1325.55,627.566656 1325.23334,625.566676 1324.6,623.7 C1323.96666,621.833324 1323.08334,620.216673 1321.95,618.85 C1320.81666,617.483326 1319.45,616.4 1317.85,615.6 C1316.24999,614.799996 1314.48334,614.4 1312.55,614.4 C1310.61666,614.4 1308.83334,614.799996 1307.2,615.6 C1305.56666,616.4 1304.18334,617.483326 1303.05,618.85 C1301.91666,620.216673 1301.03334,621.833324 1300.4,623.7 C1299.76666,625.566676 1299.45,627.566656 1299.45,629.7 C1299.45,631.833344 1299.76666,633.833324 1300.4,635.7 C1301.03334,637.566676 1301.91666,639.183327 1303.05,640.55 C1304.18334,641.916674 1305.56666,642.999996 1307.2,643.8 C1308.83334,644.600004 1310.61666,645 1312.55,645 C1314.48334,645 1316.24999,644.600004 1317.85,643.8 C1319.45,642.999996 1320.81666,641.916674 1321.95,640.55 C1323.08334,639.183327 1323.96666,637.566676 1324.6,635.7 C1325.23334,633.833324 1325.55,631.833344 1325.55,629.7 Z M1363.65,610.4 C1365.18334,607.933321 1366.96666,605.950007 1369,604.45 C1371.03334,602.949993 1373.34999,602.2 1375.95,602.2 C1377.28334,602.2 1378.51666,602.316665 1379.65,602.55 C1380.78334,602.783335 1381.81666,603.066665 1382.75,603.4 L1379.35,615.8 C1377.81666,614.999996 1376.15001,614.6 1374.35,614.6 C1372.28332,614.6 1370.38334,615.133328 1368.65,616.2 C1366.91666,617.266672 1365.51667,618.666658 1364.45,620.4 L1364.45,656 L1350.25,656 L1350.25,603.4 L1362.55,603.4 L1363.65,610.4 Z M1456.95,656 L1452.45,643 L1427.55,643 L1422.85,656 L1406.95,656 L1435.55,586 L1447.15,586 L1473.45,656 L1456.95,656 Z M1431.75,631.3 L1448.45,631.3 L1440.35,607.8 L1440.25,607.8 L1431.75,631.3 Z M1517.25,656 L1516.15,648.8 C1514.01666,651.800015 1511.50001,653.949994 1508.6,655.25 C1505.69999,656.550006 1502.78335,657.2 1499.85,657.2 C1496.98332,657.2 1494.35001,656.583339 1491.95,655.35 C1489.54999,654.11666 1487.51667,652.433344 1485.85,650.3 C1483.78332,647.63332 1482.48334,644.650016 1481.95,641.35 C1481.41666,638.049984 1481.15,634.500019 1481.15,630.7 L1481.15,603.4 L1495.35,603.4 L1495.35,630 C1495.35,631.933343 1495.43333,633.916657 1495.6,635.95 C1495.76667,637.983344 1496.21666,639.766659 1496.95,641.3 C1497.61667,642.63334 1498.56666,643.58333 1499.8,644.15 C1501.03334,644.716669 1502.41666,645 1503.95,645 C1506.08334,645 1508.18332,644.416673 1510.25,643.25 C1512.31668,642.083327 1514.01666,640.433344 1515.35,638.3 L1515.35,603.4 L1529.55,603.4 L1529.55,656 L1517.25,656 Z M1593.95,653.2 C1593.95,658.866695 1592.85001,663.533315 1590.65,667.2 C1588.31666,671.20002 1585.06669,674.116657 1580.9,675.95 C1576.73331,677.783343 1572.25002,678.7 1567.45,678.7 C1563.38331,678.7 1559.25002,678.116673 1555.05,676.95 C1550.84998,675.783328 1546.88335,673.966679 1543.15,671.5 L1548.35,659.8 C1551.35002,662.066678 1554.54998,663.749994 1557.95,664.85 C1561.35002,665.950005 1564.34999,666.5 1566.95,666.5 C1570.68335,666.5 1573.74999,665.483344 1576.15,663.45 C1578.55001,661.416657 1579.75,658.300021 1579.75,654.1 L1579.75,649.3 C1578.75,650.566673 1577.63334,651.616662 1576.4,652.45 C1575.16666,653.283338 1573.85001,653.966664 1572.45,654.5 C1571.04999,655.033336 1569.65001,655.416666 1568.25,655.65 C1566.84999,655.883335 1565.51667,656 1564.25,656 C1560.78332,656 1557.55002,655.300007 1554.55,653.9 C1551.54998,652.499993 1548.95001,650.583345 1546.75,648.15 C1544.54999,645.716655 1542.83334,642.850017 1541.6,639.55 C1540.36666,636.249983 1539.75,632.700019 1539.75,628.9 C1539.75,625.233315 1540.36666,621.783349 1541.6,618.55 C1542.83334,615.31665 1544.54999,612.483346 1546.75,610.05 C1548.95001,607.616654 1551.54998,605.7 1554.55,604.3 C1557.55002,602.899993 1560.84998,602.2 1564.45,602.2 C1565.78334,602.2 1567.18333,602.333332 1568.65,602.6 C1570.11667,602.866668 1571.56666,603.283331 1573,603.85 C1574.43334,604.41667 1575.79999,605.166662 1577.1,606.1 C1578.40001,607.033338 1579.51666,608.2 1580.45,609.6 L1581.65,603.4 L1593.95,603.4 L1593.95,653.2 Z M1579.75,620.1 C1577.94999,617.966656 1576.01668,616.483338 1573.95,615.65 C1571.88332,614.816663 1569.75001,614.4 1567.55,614.4 C1565.28332,614.4 1563.31667,614.833329 1561.65,615.7 C1559.98332,616.566671 1558.60001,617.699993 1557.5,619.1 C1556.39999,620.500007 1555.58334,622.099991 1555.05,623.9 C1554.51666,625.700009 1554.25,627.499991 1554.25,629.3 C1554.25,631.233343 1554.55,633.066658 1555.15,634.8 C1555.75,636.533342 1556.61666,638.06666 1557.75,639.4 C1558.88334,640.73334 1560.26666,641.799996 1561.9,642.6 C1563.53334,643.4 1565.34999,643.8 1567.35,643.8 C1569.55001,643.8 1571.78332,643.300005 1574.05,642.3 C1576.31668,641.299995 1578.21666,639.500013 1579.75,636.9 L1579.75,620.1 Z M1671.25,601.5 L1648.25,601.5 C1648.11667,604.033346 1647.98333,606.383322 1647.85,608.55 C1647.71667,610.716678 1647.51667,612.933322 1647.25,615.2 C1649.65001,614.133328 1652.21665,613.6 1654.95,613.6 C1657.75001,613.6 1660.33332,614.149995 1662.7,615.25 C1665.06668,616.350005 1667.09999,617.84999 1668.8,619.75 C1670.50001,621.65001 1671.83333,623.833321 1672.8,626.3 C1673.76667,628.766679 1674.25,631.33332 1674.25,634 C1674.25,637.33335 1673.65001,640.416653 1672.45,643.25 C1671.25,646.083347 1669.60001,648.533323 1667.5,650.6 C1665.39999,652.666677 1662.91668,654.283328 1660.05,655.45 C1657.18332,656.616673 1654.08335,657.2 1650.75,657.2 C1645.74997,657.2 1641.28335,656.083345 1637.35,653.85 C1633.41665,651.616655 1630.38334,648.333355 1628.25,644 L1640.15,638 C1641.21667,640.733347 1642.71666,642.616661 1644.65,643.65 C1646.58334,644.683338 1648.51666,645.2 1650.45,645.2 C1651.91667,645.2 1653.23333,644.91667 1654.4,644.35 C1655.56667,643.783331 1656.55,643.033338 1657.35,642.1 C1658.15,641.166662 1658.76666,640.1 1659.2,638.9 C1659.63334,637.699994 1659.85,636.43334 1659.85,635.1 C1659.85,632.299986 1659.00001,629.983343 1657.3,628.15 C1655.59999,626.316658 1653.28335,625.4 1650.35,625.4 C1648.75,625.4 1647.25,625.699997 1645.85,626.3 C1644.44999,626.900003 1643.11667,627.966659 1641.85,629.5 L1632.65,623 C1632.91667,620.599988 1633.16667,617.916681 1633.4,614.95 C1633.63333,611.983318 1633.85,609.000015 1634.05,606 C1634.25,602.999985 1634.41667,600.066681 1634.55,597.2 C1634.68333,594.333319 1634.78333,591.800011 1634.85,589.6 L1671.25,589.6 L1671.25,601.5 Z M1752.05,656 L1707.45,656 L1707.45,645.5 C1709.38334,643.49999 1711.36666,641.383345 1713.4,639.15 C1715.43334,636.916656 1717.43332,634.633345 1719.4,632.3 C1721.36668,629.966655 1723.26666,627.650012 1725.1,625.35 C1726.93334,623.049989 1728.58333,620.833344 1730.05,618.7 C1731.25001,616.966658 1732.35,615.066677 1733.35,613 C1734.35,610.933323 1734.85,608.933343 1734.85,607 C1734.85,604.933323 1734.16667,603.28334 1732.8,602.05 C1731.43333,600.816661 1729.68334,600.2 1727.55,600.2 C1725.21665,600.2 1723.36667,601.049992 1722,602.75 C1720.63333,604.450008 1719.95,606.733319 1719.95,609.6 L1705.85,607.3 C1706.05,604.433319 1706.78333,601.833345 1708.05,599.5 C1709.31667,597.166655 1710.94999,595.183341 1712.95,593.55 C1714.95001,591.916659 1717.21665,590.650005 1719.75,589.75 C1722.28335,588.849995 1724.94999,588.4 1727.75,588.4 C1730.48335,588.4 1733.14999,588.799996 1735.75,589.6 C1738.35001,590.4 1740.64999,591.583326 1742.65,593.15 C1744.65001,594.716674 1746.24999,596.649989 1747.45,598.95 C1748.65001,601.250012 1749.25,603.866652 1749.25,606.8 C1749.25,610.13335 1748.60001,613.349985 1747.3,616.45 C1745.99999,619.550015 1744.38334,622.499986 1742.45,625.3 C1740.04999,628.700017 1737.46668,631.949985 1734.7,635.05 C1731.93332,638.150015 1729.18335,641.166652 1726.45,644.1 L1752.05,644.1 L1752.05,656 Z M1782.55,588.4 C1786.55002,588.4 1790.08332,589.183326 1793.15,590.75 C1796.21668,592.316674 1798.79999,594.583319 1800.9,597.55 C1803.00001,600.516682 1804.59999,604.133312 1805.7,608.4 C1806.80001,612.666688 1807.35,617.46664 1807.35,622.8 C1807.35,628.13336 1806.80001,632.933312 1805.7,637.2 C1804.59999,641.466688 1803.00001,645.083319 1800.9,648.05 C1798.79999,651.016682 1796.21668,653.283326 1793.15,654.85 C1790.08332,656.416674 1786.55002,657.2 1782.55,657.2 C1778.54998,657.2 1775.01668,656.416674 1771.95,654.85 C1768.88332,653.283326 1766.30001,651.016682 1764.2,648.05 C1762.09999,645.083319 1760.50001,641.466688 1759.4,637.2 C1758.29999,632.933312 1757.75,628.13336 1757.75,622.8 C1757.75,617.46664 1758.29999,612.666688 1759.4,608.4 C1760.50001,604.133312 1762.09999,600.516682 1764.2,597.55 C1766.30001,594.583319 1768.88332,592.316674 1771.95,590.75 C1775.01668,589.183326 1778.54998,588.4 1782.55,588.4 Z M1782.55,600.5 C1779.21665,600.5 1776.65,602.333315 1774.85,606 C1773.04999,609.666685 1772.15,615.266629 1772.15,622.8 C1772.15,630.333371 1773.04999,635.933315 1774.85,639.6 C1776.65,643.266685 1779.21665,645.1 1782.55,645.1 C1785.88335,645.1 1788.44999,643.266685 1790.25,639.6 C1792.05001,635.933315 1792.95,630.333371 1792.95,622.8 C1792.95,615.266629 1792.05001,609.666685 1790.25,606 C1788.44999,602.333315 1785.88335,600.5 1782.55,600.5 Z M1860.65,656 L1816.05,656 L1816.05,645.5 C1817.98334,643.49999 1819.96666,641.383345 1822,639.15 C1824.03334,636.916656 1826.03332,634.633345 1828,632.3 C1829.96668,629.966655 1831.86666,627.650012 1833.7,625.35 C1835.53334,623.049989 1837.18333,620.833344 1838.65,618.7 C1839.85001,616.966658 1840.95,615.066677 1841.95,613 C1842.95,610.933323 1843.45,608.933343 1843.45,607 C1843.45,604.933323 1842.76667,603.28334 1841.4,602.05 C1840.03333,600.816661 1838.28334,600.2 1836.15,600.2 C1833.81665,600.2 1831.96667,601.049992 1830.6,602.75 C1829.23333,604.450008 1828.55,606.733319 1828.55,609.6 L1814.45,607.3 C1814.65,604.433319 1815.38333,601.833345 1816.65,599.5 C1817.91667,597.166655 1819.54999,595.183341 1821.55,593.55 C1823.55001,591.916659 1825.81665,590.650005 1828.35,589.75 C1830.88335,588.849995 1833.54999,588.4 1836.35,588.4 C1839.08335,588.4 1841.74999,588.799996 1844.35,589.6 C1846.95001,590.4 1849.24999,591.583326 1851.25,593.15 C1853.25001,594.716674 1854.84999,596.649989 1856.05,598.95 C1857.25001,601.250012 1857.85,603.866652 1857.85,606.8 C1857.85,610.13335 1857.20001,613.349985 1855.9,616.45 C1854.59999,619.550015 1852.98334,622.499986 1851.05,625.3 C1848.64999,628.700017 1846.06668,631.949985 1843.3,635.05 C1840.53332,638.150015 1837.78335,641.166652 1835.05,644.1 L1860.65,644.1 L1860.65,656 Z M1891.15,588.4 C1895.15002,588.4 1898.68332,589.183326 1901.75,590.75 C1904.81668,592.316674 1907.39999,594.583319 1909.5,597.55 C1911.60001,600.516682 1913.19999,604.133312 1914.3,608.4 C1915.40001,612.666688 1915.95,617.46664 1915.95,622.8 C1915.95,628.13336 1915.40001,632.933312 1914.3,637.2 C1913.19999,641.466688 1911.60001,645.083319 1909.5,648.05 C1907.39999,651.016682 1904.81668,653.283326 1901.75,654.85 C1898.68332,656.416674 1895.15002,657.2 1891.15,657.2 C1887.14998,657.2 1883.61668,656.416674 1880.55,654.85 C1877.48332,653.283326 1874.90001,651.016682 1872.8,648.05 C1870.69999,645.083319 1869.10001,641.466688 1868,637.2 C1866.89999,632.933312 1866.35,628.13336 1866.35,622.8 C1866.35,617.46664 1866.89999,612.666688 1868,608.4 C1869.10001,604.133312 1870.69999,600.516682 1872.8,597.55 C1874.90001,594.583319 1877.48332,592.316674 1880.55,590.75 C1883.61668,589.183326 1887.14998,588.4 1891.15,588.4 Z M1891.15,600.5 C1887.81665,600.5 1885.25,602.333315 1883.45,606 C1881.64999,609.666685 1880.75,615.266629 1880.75,622.8 C1880.75,630.333371 1881.64999,635.933315 1883.45,639.6 C1885.25,643.266685 1887.81665,645.1 1891.15,645.1 C1894.48335,645.1 1897.04999,643.266685 1898.85,639.6 C1900.65001,635.933315 1901.55,630.333371 1901.55,622.8 C1901.55,615.266629 1900.65001,609.666685 1898.85,606 C1897.04999,602.333315 1894.48335,600.5 1891.15,600.5 Z" id="FeatureddomainsforAug52020" fill="#272727" fill-rule="nonzero"></path>
        <g id="abstract" transform="translate(701.000000, 228.000000)" fill="url(#linearGradient-1)" fill-rule="nonzero">
            <path d="M239.564051,0 L175.331447,0 C143.567871,0 117.724479,25.8433917 117.724479,57.6069681 L117.724479,116.965989 L58.365458,116.965989 C26.6018815,116.965989 0.75848984,142.809381 0.75848984,174.572957 L0.75848984,238.805561 C0.75848984,241.499434 2.93819979,243.679144 5.63207273,243.679144 L69.8646768,243.679144 C101.628253,243.679144 127.471645,217.835753 127.471645,186.072176 L127.471645,126.713155 L186.830666,126.713155 C218.594243,126.713155 244.437634,100.869763 244.437634,69.106187 L244.437634,4.87358289 C244.437634,2.17970995 242.257924,0 239.564051,0 Z M117.724479,186.072176 C117.724479,212.462628 96.2551281,233.931979 69.8646768,233.931979 L10.5056556,233.931979 L10.5056556,174.572957 C10.5056556,148.182506 31.9750066,126.713155 58.365458,126.713155 L117.724479,126.713155 L117.724479,186.072176 Z" id="Shape"></path>
        </g>
        <path d="M1034.96667,343.4 C1032.29999,340.999988 1029.16668,338.933342 1025.56667,337.2 C1021.96665,335.466658 1018.16669,334.6 1014.16667,334.6 C1011.49999,334.6 1009.13334,335.299993 1007.06667,336.7 C1004.99999,338.100007 1003.96667,340.066654 1003.96667,342.6 C1003.96667,345.93335 1005.63332,348.566657 1008.96667,350.5 C1012.30002,352.433343 1016.16664,354.333324 1020.56667,356.2 C1023.90002,357.666674 1027.39998,359.233325 1031.06667,360.9 C1034.73335,362.566675 1038.06665,364.599988 1041.06667,367 C1044.06668,369.400012 1046.53332,372.366649 1048.46667,375.9 C1050.40001,379.433351 1051.36667,383.666642 1051.36667,388.6 C1051.36667,394.466696 1050.23334,399.499979 1047.96667,403.7 C1045.69999,407.900021 1042.66669,411.399986 1038.86667,414.2 C1035.06665,417.000014 1030.73336,419.06666 1025.86667,420.4 C1020.99998,421.73334 1016.03336,422.4 1010.96667,422.4 C1002.69996,422.4 995.033369,420.866682 987.966667,417.8 C980.899965,414.733318 974.433363,410.266696 968.566667,404.4 L984.766667,387.6 C988.766687,391.466686 992.633315,394.499989 996.366667,396.7 C1000.10002,398.900011 1004.49997,400 1009.56667,400 C1011.03334,400 1012.56667,399.833335 1014.16667,399.5 C1015.76667,399.166665 1017.19999,398.600004 1018.46667,397.8 C1019.73334,396.999996 1020.8,396.033339 1021.66667,394.9 C1022.53334,393.766661 1022.96667,392.4 1022.96667,390.8 C1022.96667,388.933324 1022.40001,387.300007 1021.26667,385.9 C1020.13333,384.499993 1018.66668,383.233339 1016.86667,382.1 C1015.06667,380.966661 1012.93335,379.9 1010.46667,378.9 C1007.99999,377.9 1005.50001,376.800006 1002.96667,375.6 C999.766651,374.26666 996.600016,372.766675 993.466667,371.1 C990.333318,369.433325 987.533346,367.400012 985.066667,365 C982.599988,362.599988 980.566667,359.766683 978.966667,356.5 C977.366659,353.233317 976.566667,349.26669 976.566667,344.6 C976.566667,339.26664 977.633323,334.60002 979.766667,330.6 C981.900011,326.59998 984.699983,323.233347 988.166667,320.5 C991.633351,317.766653 995.633311,315.73334 1000.16667,314.4 C1004.70002,313.06666 1009.36664,312.4 1014.16667,312.4 C1021.23337,312.4 1027.8333,313.533322 1033.96667,315.8 C1040.10003,318.066678 1045.63331,321.53331 1050.56667,326.2 L1034.96667,343.4 Z M1115.7,420 L1087.3,420 L1087.3,270 L1115.7,270 L1115.7,420 Z M1178.23333,374.4 C1179.30001,381.600036 1182.06664,387.599976 1186.53333,392.4 C1191.00002,397.200024 1197.0333,399.6 1204.63333,399.6 C1211.43337,399.6 1216.83331,398.26668 1220.83333,395.6 C1224.83335,392.93332 1228.56665,389.066692 1232.03333,384 L1250.63333,396.6 C1244.6333,405.400044 1237.9667,411.899979 1230.63333,416.1 C1223.29996,420.300021 1213.96672,422.4 1202.63333,422.4 C1194.63329,422.4 1187.3667,421.06668 1180.83333,418.4 C1174.29997,415.73332 1168.70002,412.033357 1164.03333,407.3 C1159.36664,402.566643 1155.76668,396.900033 1153.23333,390.3 C1150.69999,383.699967 1149.43333,376.466706 1149.43333,368.6 C1149.43333,360.59996 1150.79999,353.200034 1153.53333,346.4 C1156.26668,339.599966 1160.03331,333.666692 1164.83333,328.6 C1169.63336,323.533308 1175.26663,319.566681 1181.73333,316.7 C1188.20003,313.833319 1195.2333,312.4 1202.83333,312.4 C1210.1667,312.4 1216.9333,313.633321 1223.13333,316.1 C1229.33336,318.566679 1234.69998,321.933312 1239.23333,326.2 C1243.76669,330.466688 1247.29999,335.59997 1249.83333,341.6 C1252.36668,347.60003 1253.63333,354.066632 1253.63333,361 C1253.63333,363.133344 1253.5,365.366655 1253.23333,367.7 C1252.96667,370.033345 1252.63334,372.266656 1252.23333,374.4 L1178.23333,374.4 Z M1224.63333,355 C1224.36667,348.599968 1222.26669,343.600018 1218.33333,340 C1214.39998,336.399982 1209.50003,334.6 1203.63333,334.6 C1196.8333,334.6 1191.50002,336.499981 1187.63333,340.3 C1183.76665,344.100019 1181.10001,348.99997 1179.63333,355 L1224.63333,355 Z M1309.16667,374.4 C1310.23334,381.600036 1312.99998,387.599976 1317.46667,392.4 C1321.93336,397.200024 1327.96663,399.6 1335.56667,399.6 C1342.3667,399.6 1347.76665,398.26668 1351.76667,395.6 C1355.76669,392.93332 1359.49998,389.066692 1362.96667,384 L1381.56667,396.6 C1375.56664,405.400044 1368.90004,411.899979 1361.56667,416.1 C1354.2333,420.300021 1344.90006,422.4 1333.56667,422.4 C1325.56663,422.4 1318.30003,421.06668 1311.76667,418.4 C1305.2333,415.73332 1299.63336,412.033357 1294.96667,407.3 C1290.29998,402.566643 1286.70001,396.900033 1284.16667,390.3 C1281.63332,383.699967 1280.36667,376.466706 1280.36667,368.6 C1280.36667,360.59996 1281.73332,353.200034 1284.46667,346.4 C1287.20001,339.599966 1290.96664,333.666692 1295.76667,328.6 C1300.56669,323.533308 1306.19997,319.566681 1312.66667,316.7 C1319.13337,313.833319 1326.16663,312.4 1333.76667,312.4 C1341.10004,312.4 1347.86664,313.633321 1354.06667,316.1 C1360.2667,318.566679 1365.63331,321.933312 1370.16667,326.2 C1374.70002,330.466688 1378.23332,335.59997 1380.76667,341.6 C1383.30001,347.60003 1384.56667,354.066632 1384.56667,361 C1384.56667,363.133344 1384.43333,365.366655 1384.16667,367.7 C1383.9,370.033345 1383.56667,372.266656 1383.16667,374.4 L1309.16667,374.4 Z M1355.56667,355 C1355.3,348.599968 1353.20002,343.600018 1349.26667,340 C1345.33331,336.399982 1340.43336,334.6 1334.56667,334.6 C1327.76663,334.6 1322.43335,336.499981 1318.56667,340.3 C1314.69998,344.100019 1312.03334,348.99997 1310.56667,355 L1355.56667,355 Z M1481.3,420 L1457.1,381 L1446.9,392.8 L1446.9,420 L1418.5,420 L1418.5,270 L1446.9,270 L1446.9,357.6 L1447.3,357.6 L1481.3,314.8 L1513.7,314.8 L1476.1,358.8 L1516.1,420 L1481.3,420 Z" id="sleek" fill="#272727" fill-rule="nonzero"></path>
        <rect id="Rectangle" fill="#000000" x="262" y="816" width="1802" height="313" rx="50"></rect>
        <path d="M678.12,978.53 L678.12,967.64 L706.11,967.64 L706.11,992.21 C702.809984,996.650022 698.775024,999.90499 694.005,1001.975 C689.234976,1004.04501 684.120027,1005.08 678.66,1005.08 C673.859976,1005.08 669.42002,1004.28501 665.34,1002.695 C661.25998,1001.10499 657.720015,998.885014 654.72,996.035 C651.719985,993.184986 649.365009,989.76502 647.655,985.775 C645.944991,981.78498 645.09,977.360024 645.09,972.5 C645.09,967.879977 645.974991,963.59002 647.745,959.63 C649.515009,955.66998 651.914985,952.220015 654.945,949.28 C657.975015,946.339985 661.52998,944.045008 665.61,942.395 C669.69002,940.744992 674.039977,939.92 678.66,939.92 C684.000027,939.92 688.874978,940.984989 693.285,943.115 C697.695022,945.245011 701.639983,948.31998 705.12,952.34 L696.21,960.08 C693.989989,957.499987 691.410015,955.370008 688.47,953.69 C685.529985,952.009992 682.260018,951.17 678.66,951.17 C675.779986,951.17 673.140012,951.724994 670.74,952.835 C668.339988,953.945006 666.255009,955.45999 664.485,957.38 C662.714991,959.30001 661.335005,961.549987 660.345,964.13 C659.354995,966.710013 658.86,969.499985 658.86,972.5 C658.86,975.680016 659.324995,978.574987 660.255,981.185 C661.185005,983.795013 662.519991,986.029991 664.26,987.89 C666.000009,989.750009 668.084988,991.204995 670.515,992.255 C672.945012,993.305005 675.659985,993.83 678.66,993.83 C681.240013,993.83 683.819987,993.335005 686.4,992.345 C688.980013,991.354995 691.25999,989.90001 693.24,987.98 L693.24,978.53 L678.12,978.53 Z M727.98,983.48 C728.460002,986.720016 729.70499,989.419989 731.715,991.58 C733.72501,993.740011 736.439983,994.82 739.86,994.82 C742.920015,994.82 745.349991,994.220006 747.15,993.02 C748.950009,991.819994 750.629992,990.080011 752.19,987.8 L760.56,993.47 C757.859987,997.43002 754.860017,1000.35499 751.56,1002.245 C748.259984,1004.13501 744.060026,1005.08 738.96,1005.08 C735.359982,1005.08 732.090015,1004.48001 729.15,1003.28 C726.209985,1002.08 723.690011,1000.41501 721.59,998.285 C719.48999,996.154989 717.870006,993.605015 716.73,990.635 C715.589994,987.664985 715.02,984.410018 715.02,980.87 C715.02,977.269982 715.634994,973.940015 716.865,970.88 C718.095006,967.819985 719.789989,965.150011 721.95,962.87 C724.110011,960.589989 726.644985,958.805006 729.555,957.515 C732.465015,956.224994 735.629983,955.58 739.05,955.58 C742.350017,955.58 745.394986,956.134994 748.185,957.245 C750.975014,958.355006 753.38999,959.86999 755.43,961.79 C757.47001,963.71001 759.059994,966.019986 760.2,968.72 C761.340006,971.420013 761.91,974.329984 761.91,977.45 C761.91,978.410005 761.850001,979.414995 761.73,980.465 C761.609999,981.515005 761.460001,982.519995 761.28,983.48 L727.98,983.48 Z M748.86,974.75 C748.739999,971.869986 747.795009,969.620008 746.025,968 C744.254991,966.379992 742.050013,965.57 739.41,965.57 C736.349985,965.57 733.950009,966.424991 732.21,968.135 C730.469991,969.845009 729.270003,972.049987 728.61,974.75 L748.86,974.75 Z M784.5,967.28 L784.5,987.71 C784.5,988.370003 784.559999,989.029997 784.68,989.69 C784.860001,991.070007 785.249997,992.164996 785.85,992.975 C786.450003,993.785004 787.439993,994.19 788.82,994.19 C789.840005,994.19 790.739996,994.070001 791.52,993.83 C792.300004,993.589999 793.109996,993.260002 793.95,992.84 L797.91,1002.29 C796.349992,1003.19 794.55001,1003.88 792.51,1004.36 C790.46999,1004.84 788.520009,1005.08 786.66,1005.08 C782.939981,1005.08 779.880012,1004.15001 777.48,1002.29 C775.079988,1000.42999 773.460004,997.970015 772.62,994.91 C772.259998,993.709994 772.020001,992.435007 771.9,991.085 C771.779999,989.734993 771.72,988.370007 771.72,986.99 L771.72,967.28 L766.05,967.28 L766.05,956.66 L771.72,956.66 L773.7,946.22 L784.5,946.22 L784.5,956.66 L796.56,956.66 L796.56,967.28 L784.5,967.28 Z M855.96,1004 L845.07,986.45 L840.48,991.76 L840.48,1004 L827.7,1004 L827.7,936.5 L840.48,936.5 L840.48,975.92 L840.66,975.92 L855.96,956.66 L870.54,956.66 L853.62,976.46 L871.62,1004 L855.96,1004 Z M890.43,1004 L877.65,1004 L877.65,936.5 L890.43,936.5 L890.43,1004 Z M931.56,1004 L930.57,999.95 C929.009992,1001.87001 927.105011,1003.205 924.855,1003.955 C922.604989,1004.705 920.220013,1005.08 917.7,1005.08 C915.479989,1005.08 913.35001,1004.75 911.31,1004.09 C909.26999,1003.43 907.455008,1002.47001 905.865,1001.21 C904.274992,999.949994 903.015005,998.390009 902.085,996.53 C901.154995,994.669991 900.69,992.510012 900.69,990.05 C900.69,987.169986 901.304994,984.74001 902.535,982.76 C903.765006,980.77999 905.35499,979.205006 907.305,978.035 C909.25501,976.864994 911.459988,976.025003 913.92,975.515 C916.380012,975.004997 918.839988,974.75 921.3,974.75 C923.880013,974.75 926.729984,975.08 929.85,975.74 L929.85,975.02 C929.85,972.019985 929.160007,969.680008 927.78,968 C926.399993,966.319992 923.970017,965.48 920.49,965.48 C917.789987,965.48 915.255012,965.899996 912.885,966.74 C910.514988,967.58 908.280011,968.539995 906.18,969.62 L902.76,960.44 C905.820015,958.939993 909.089983,957.755004 912.57,956.885 C916.050017,956.014996 919.559982,955.58 923.1,955.58 C929.700033,955.58 934.604984,957.364982 937.815,960.935 C941.025016,964.505018 942.63,969.379969 942.63,975.56 L942.63,1004 L931.56,1004 Z M929.85,983.39 C927.389988,982.849997 925.230009,982.58 923.37,982.58 C922.169994,982.58 920.970006,982.699999 919.77,982.94 C918.569994,983.180001 917.490005,983.584997 916.53,984.155 C915.569995,984.725003 914.775003,985.474995 914.145,986.405 C913.514997,987.335005 913.2,988.489993 913.2,989.87 C913.2,991.97001 913.919993,993.544995 915.36,994.595 C916.800007,995.645005 918.47999,996.17 920.4,996.17 C922.260009,996.17 923.954992,995.795004 925.485,995.045 C927.015008,994.294996 928.469993,993.320006 929.85,992.12 L929.85,983.39 Z M954.6,1004 L954.6,956.66 L967.38,956.66 L967.38,1004 L954.6,1004 Z M954.6,950.09 L954.6,939.2 L967.38,939.2 L967.38,950.09 L954.6,950.09 Z M1038.48,1004 L1038.48,980.06 C1038.48,978.319991 1038.405,976.535009 1038.255,974.705 C1038.105,972.874991 1037.7,971.270007 1037.04,969.89 C1036.44,968.689994 1035.60001,967.835003 1034.52,967.325 C1033.43999,966.814997 1032.18001,966.56 1030.74,966.56 C1029.05999,966.56 1027.39501,967.024995 1025.745,967.955 C1024.09499,968.885005 1022.67001,970.219991 1021.47,971.96 C1021.59,973.160006 1021.695,974.374994 1021.785,975.605 C1021.875,976.835006 1021.92,978.109993 1021.92,979.43 L1021.92,1004 L1009.14,1004 L1009.14,980.06 C1009.14,978.319991 1009.08,976.520009 1008.96,974.66 C1008.84,972.799991 1008.42,971.180007 1007.7,969.8 C1007.1,968.659994 1006.29001,967.835003 1005.27,967.325 C1004.24999,966.814997 1003.05001,966.56 1001.67,966.56 C1000.10999,966.56 998.505008,966.994996 996.855,967.865 C995.204992,968.735004 993.780006,969.859993 992.58,971.24 L992.58,1004 L979.8,1004 L979.8,956.66 L990.87,956.66 L991.77,962.42 C993.69001,960.019988 995.864988,958.280005 998.295,957.2 C1000.72501,956.119995 1003.10999,955.58 1005.45,955.58 C1008.15001,955.58 1010.75999,956.299993 1013.28,957.74 C1015.80001,959.180007 1017.65999,961.099988 1018.86,963.5 C1019.94001,961.939992 1021.13999,960.650005 1022.46,959.63 C1023.78001,958.609995 1025.11499,957.800003 1026.465,957.2 C1027.81501,956.599997 1029.19499,956.180001 1030.605,955.94 C1032.01501,955.699999 1033.34999,955.58 1034.61,955.58 C1037.13001,955.58 1039.45499,956.119995 1041.585,957.2 C1043.71501,958.280005 1045.52999,959.77999 1047.03,961.7 C1048.89001,964.100012 1050.06,966.799985 1050.54,969.8 C1051.02,972.800015 1051.26,976.009983 1051.26,979.43 L1051.26,1004 L1038.48,1004 Z M1073.04,983.48 C1073.52,986.720016 1074.76499,989.419989 1076.775,991.58 C1078.78501,993.740011 1081.49998,994.82 1084.92,994.82 C1087.98002,994.82 1090.40999,994.220006 1092.21,993.02 C1094.01001,991.819994 1095.68999,990.080011 1097.25,987.8 L1105.62,993.47 C1102.91999,997.43002 1099.92002,1000.35499 1096.62,1002.245 C1093.31998,1004.13501 1089.12003,1005.08 1084.02,1005.08 C1080.41998,1005.08 1077.15001,1004.48001 1074.21,1003.28 C1071.26999,1002.08 1068.75001,1000.41501 1066.65,998.285 C1064.54999,996.154989 1062.93001,993.605015 1061.79,990.635 C1060.64999,987.664985 1060.08,984.410018 1060.08,980.87 C1060.08,977.269982 1060.69499,973.940015 1061.925,970.88 C1063.15501,967.819985 1064.84999,965.150011 1067.01,962.87 C1069.17001,960.589989 1071.70499,958.805006 1074.615,957.515 C1077.52501,956.224994 1080.68998,955.58 1084.11,955.58 C1087.41002,955.58 1090.45499,956.134994 1093.245,957.245 C1096.03501,958.355006 1098.44999,959.86999 1100.49,961.79 C1102.53001,963.71001 1104.11999,966.019986 1105.26,968.72 C1106.40001,971.420013 1106.97,974.329984 1106.97,977.45 C1106.97,978.410005 1106.91,979.414995 1106.79,980.465 C1106.67,981.515005 1106.52,982.519995 1106.34,983.48 L1073.04,983.48 Z M1093.92,974.75 C1093.8,971.869986 1092.85501,969.620008 1091.085,968 C1089.31499,966.379992 1087.11001,965.57 1084.47,965.57 C1081.40998,965.57 1079.01001,966.424991 1077.27,968.135 C1075.52999,969.845009 1074.33,972.049987 1073.67,974.75 L1093.92,974.75 Z M1150.71,1004 L1149.63,998.15 C1148.79,999.470007 1147.78501,1000.565 1146.615,1001.435 C1145.44499,1002.305 1144.21501,1003.01 1142.925,1003.55 C1141.63499,1004.09 1140.30001,1004.48 1138.92,1004.72 C1137.53999,1004.96 1136.25001,1005.08 1135.05,1005.08 C1131.92998,1005.08 1129.02001,1004.42001 1126.32,1003.1 C1123.61999,1001.77999 1121.28001,999.995011 1119.3,997.745 C1117.31999,995.494989 1115.77501,992.855015 1114.665,989.825 C1113.55499,986.794985 1113,983.570017 1113,980.15 C1113,976.849984 1113.55499,973.700015 1114.665,970.7 C1115.77501,967.699985 1117.31999,965.090011 1119.3,962.87 C1121.28001,960.649989 1123.61999,958.880007 1126.32,957.56 C1129.02001,956.239993 1131.98998,955.58 1135.23,955.58 C1137.51001,955.58 1139.92499,956.014996 1142.475,956.885 C1145.02501,957.755004 1147.19999,959.20999 1149,961.25 L1149,936.5 L1161.78,936.5 L1161.78,1004 L1150.71,1004 Z M1149,971.69 C1147.37999,969.76999 1145.64001,968.435004 1143.78,967.685 C1141.91999,966.934996 1140.00001,966.56 1138.02,966.56 C1135.97999,966.56 1134.21001,966.979996 1132.71,967.82 C1131.20999,968.660004 1129.965,969.739993 1128.975,971.06 C1127.985,972.380007 1127.25,973.864992 1126.77,975.515 C1126.29,977.165008 1126.05,978.829992 1126.05,980.51 C1126.05,982.250009 1126.32,983.929992 1126.86,985.55 C1127.4,987.170008 1128.17999,988.609994 1129.2,989.87 C1130.22001,991.130006 1131.46499,992.149996 1132.935,992.93 C1134.40501,993.710004 1136.03999,994.1 1137.84,994.1 C1139.88001,994.1 1141.90499,993.650005 1143.915,992.75 C1145.92501,991.849995 1147.61999,990.230012 1149,987.89 L1149,971.69 Z M1172.31,1004 L1172.31,990.59 L1186.08,990.59 L1186.08,1004 L1172.31,1004 Z M1234.5,999.23 C1232.15999,1001.33001 1229.59501,1002.83 1226.805,1003.73 C1224.01499,1004.63 1220.91002,1005.08 1217.49,1005.08 C1214.00998,1005.08 1210.80001,1004.48001 1207.86,1003.28 C1204.91999,1002.08 1202.38501,1000.38501 1200.255,998.195 C1198.12499,996.004989 1196.46,993.395015 1195.26,990.365 C1194.05999,987.334985 1193.46,983.990018 1193.46,980.33 C1193.46,976.909983 1194.05999,973.685015 1195.26,970.655 C1196.46,967.624985 1198.12499,965.000011 1200.255,962.78 C1202.38501,960.559989 1204.94999,958.805006 1207.95,957.515 C1210.95002,956.224994 1214.24998,955.58 1217.85,955.58 C1224.21003,955.58 1229.75998,957.52998 1234.5,961.43 L1227.93,970.34 C1226.60999,969.139994 1225.21501,968.210003 1223.745,967.55 C1222.27499,966.889997 1220.61001,966.56 1218.75,966.56 C1216.94999,966.56 1215.30001,966.919996 1213.8,967.64 C1212.29999,968.360004 1211.01001,969.349994 1209.93,970.61 C1208.84999,971.870006 1208.01,973.339992 1207.41,975.02 C1206.81,976.700008 1206.51,978.469991 1206.51,980.33 C1206.51,982.31001 1206.825,984.139992 1207.455,985.82 C1208.085,987.500008 1208.93999,988.954994 1210.02,990.185 C1211.10001,991.415006 1212.37499,992.374997 1213.845,993.065 C1215.31501,993.755003 1216.88999,994.1 1218.57,994.1 C1220.31001,994.1 1221.91499,993.830003 1223.385,993.29 C1224.85501,992.749997 1226.27999,991.820007 1227.66,990.5 L1234.5,999.23 Z M1264.29,955.58 C1267.89002,955.58 1271.20498,956.209994 1274.235,957.47 C1277.26502,958.730006 1279.87499,960.469989 1282.065,962.69 C1284.25501,964.910011 1285.96499,967.534985 1287.195,970.565 C1288.42501,973.595015 1289.04,976.849983 1289.04,980.33 C1289.04,983.810017 1288.42501,987.064985 1287.195,990.095 C1285.96499,993.125015 1284.25501,995.749989 1282.065,997.97 C1279.87499,1000.19001 1277.26502,1001.92999 1274.235,1003.19 C1271.20498,1004.45001 1267.89002,1005.08 1264.29,1005.08 C1260.68998,1005.08 1257.36002,1004.45001 1254.3,1003.19 C1251.23998,1001.92999 1248.61501,1000.19001 1246.425,997.97 C1244.23499,995.749989 1242.52501,993.125015 1241.295,990.095 C1240.06499,987.064985 1239.45,983.810017 1239.45,980.33 C1239.45,976.849983 1240.06499,973.595015 1241.295,970.565 C1242.52501,967.534985 1244.23499,964.910011 1246.425,962.69 C1248.61501,960.469989 1251.23998,958.730006 1254.3,957.47 C1257.36002,956.209994 1260.68998,955.58 1264.29,955.58 Z M1275.99,980.33 C1275.99,978.40999 1275.705,976.610008 1275.135,974.93 C1274.565,973.249992 1273.77001,971.795006 1272.75,970.565 C1271.72999,969.334994 1270.5,968.360004 1269.06,967.64 C1267.61999,966.919996 1266.03001,966.56 1264.29,966.56 C1262.54999,966.56 1260.94501,966.919996 1259.475,967.64 C1258.00499,968.360004 1256.76001,969.334994 1255.74,970.565 C1254.71999,971.795006 1253.925,973.249992 1253.355,974.93 C1252.785,976.610008 1252.5,978.40999 1252.5,980.33 C1252.5,982.25001 1252.785,984.049992 1253.355,985.73 C1253.925,987.410008 1254.71999,988.864994 1255.74,990.095 C1256.76001,991.325006 1258.00499,992.299996 1259.475,993.02 C1260.94501,993.740004 1262.54999,994.1 1264.29,994.1 C1266.03001,994.1 1267.61999,993.740004 1269.06,993.02 C1270.5,992.299996 1271.72999,991.325006 1272.75,990.095 C1273.77001,988.864994 1274.565,987.410008 1275.135,985.73 C1275.705,984.049992 1275.99,982.25001 1275.99,980.33 Z M1356.9,1004 L1356.9,980.06 C1356.9,978.319991 1356.825,976.535009 1356.675,974.705 C1356.525,972.874991 1356.12,971.270007 1355.46,969.89 C1354.86,968.689994 1354.02001,967.835003 1352.94,967.325 C1351.85999,966.814997 1350.60001,966.56 1349.16,966.56 C1347.47999,966.56 1345.81501,967.024995 1344.165,967.955 C1342.51499,968.885005 1341.09001,970.219991 1339.89,971.96 C1340.01,973.160006 1340.115,974.374994 1340.205,975.605 C1340.295,976.835006 1340.34,978.109993 1340.34,979.43 L1340.34,1004 L1327.56,1004 L1327.56,980.06 C1327.56,978.319991 1327.5,976.520009 1327.38,974.66 C1327.26,972.799991 1326.84,971.180007 1326.12,969.8 C1325.52,968.659994 1324.71001,967.835003 1323.69,967.325 C1322.66999,966.814997 1321.47001,966.56 1320.09,966.56 C1318.52999,966.56 1316.92501,966.994996 1315.275,967.865 C1313.62499,968.735004 1312.20001,969.859993 1311,971.24 L1311,1004 L1298.22,1004 L1298.22,956.66 L1309.29,956.66 L1310.19,962.42 C1312.11001,960.019988 1314.28499,958.280005 1316.715,957.2 C1319.14501,956.119995 1321.52999,955.58 1323.87,955.58 C1326.57001,955.58 1329.17999,956.299993 1331.7,957.74 C1334.22001,959.180007 1336.07999,961.099988 1337.28,963.5 C1338.36001,961.939992 1339.55999,960.650005 1340.88,959.63 C1342.20001,958.609995 1343.53499,957.800003 1344.885,957.2 C1346.23501,956.599997 1347.61499,956.180001 1349.025,955.94 C1350.43501,955.699999 1351.76999,955.58 1353.03,955.58 C1355.55001,955.58 1357.87499,956.119995 1360.005,957.2 C1362.13501,958.280005 1363.94999,959.77999 1365.45,961.7 C1367.31001,964.100012 1368.48,966.799985 1368.96,969.8 C1369.44,972.800015 1369.68,976.009983 1369.68,979.43 L1369.68,1004 L1356.9,1004 Z M1430.16,947.93 C1428.17999,946.909995 1425.99001,946.4 1423.59,946.4 C1422.56999,946.4 1421.745,946.519999 1421.115,946.76 C1420.485,947.000001 1419.99,947.359998 1419.63,947.84 C1419.15,948.500003 1418.82,949.324995 1418.64,950.315 C1418.46,951.305005 1418.37,952.399994 1418.37,953.6 L1418.37,956.66 L1430.16,956.66 L1430.16,967.28 L1418.37,967.28 L1418.37,1004 L1405.59,1004 L1405.59,967.28 L1400.46,967.28 L1400.46,956.66 L1405.59,956.66 L1405.59,952.88 C1405.59,950.179987 1405.86,947.780011 1406.4,945.68 C1406.94,943.57999 1407.80999,941.780008 1409.01,940.28 C1410.33001,938.659992 1412.06999,937.445004 1414.23,936.635 C1416.39001,935.824996 1419.08998,935.42 1422.33,935.42 C1424.37001,935.42 1426.37999,935.659998 1428.36,936.14 C1430.34001,936.620002 1432.25999,937.279996 1434.12,938.12 L1430.16,947.93 Z M1458.06,955.58 C1461.66002,955.58 1464.97498,956.209994 1468.005,957.47 C1471.03502,958.730006 1473.64499,960.469989 1475.835,962.69 C1478.02501,964.910011 1479.73499,967.534985 1480.965,970.565 C1482.19501,973.595015 1482.81,976.849983 1482.81,980.33 C1482.81,983.810017 1482.19501,987.064985 1480.965,990.095 C1479.73499,993.125015 1478.02501,995.749989 1475.835,997.97 C1473.64499,1000.19001 1471.03502,1001.92999 1468.005,1003.19 C1464.97498,1004.45001 1461.66002,1005.08 1458.06,1005.08 C1454.45998,1005.08 1451.13002,1004.45001 1448.07,1003.19 C1445.00998,1001.92999 1442.38501,1000.19001 1440.195,997.97 C1438.00499,995.749989 1436.29501,993.125015 1435.065,990.095 C1433.83499,987.064985 1433.22,983.810017 1433.22,980.33 C1433.22,976.849983 1433.83499,973.595015 1435.065,970.565 C1436.29501,967.534985 1438.00499,964.910011 1440.195,962.69 C1442.38501,960.469989 1445.00998,958.730006 1448.07,957.47 C1451.13002,956.209994 1454.45998,955.58 1458.06,955.58 Z M1469.76,980.33 C1469.76,978.40999 1469.475,976.610008 1468.905,974.93 C1468.335,973.249992 1467.54001,971.795006 1466.52,970.565 C1465.49999,969.334994 1464.27,968.360004 1462.83,967.64 C1461.38999,966.919996 1459.80001,966.56 1458.06,966.56 C1456.31999,966.56 1454.71501,966.919996 1453.245,967.64 C1451.77499,968.360004 1450.53001,969.334994 1449.51,970.565 C1448.48999,971.795006 1447.695,973.249992 1447.125,974.93 C1446.555,976.610008 1446.27,978.40999 1446.27,980.33 C1446.27,982.25001 1446.555,984.049992 1447.125,985.73 C1447.695,987.410008 1448.48999,988.864994 1449.51,990.095 C1450.53001,991.325006 1451.77499,992.299996 1453.245,993.02 C1454.71501,993.740004 1456.31999,994.1 1458.06,994.1 C1459.80001,994.1 1461.38999,993.740004 1462.83,993.02 C1464.27,992.299996 1465.49999,991.325006 1466.52,990.095 C1467.54001,988.864994 1468.335,987.410008 1468.905,985.73 C1469.475,984.049992 1469.76,982.25001 1469.76,980.33 Z M1504.05,962.96 C1505.43001,960.739989 1507.03499,958.955007 1508.865,957.605 C1510.69501,956.254993 1512.77999,955.58 1515.12,955.58 C1516.32001,955.58 1517.42999,955.684999 1518.45,955.895 C1519.47001,956.105001 1520.4,956.359998 1521.24,956.66 L1518.18,967.82 C1516.79999,967.099996 1515.30001,966.74 1513.68,966.74 C1511.81999,966.74 1510.11001,967.219995 1508.55,968.18 C1506.99,969.140005 1505.73,970.399992 1504.77,971.96 L1504.77,1004 L1491.99,1004 L1491.99,956.66 L1503.06,956.66 L1504.05,962.96 Z M1550.85,987.08 C1551.75,987.980004 1552.72499,988.864996 1553.775,989.735 C1554.82501,990.605004 1555.93499,991.384997 1557.105,992.075 C1558.27501,992.765003 1559.51999,993.334998 1560.84,993.785 C1562.16001,994.235002 1563.56999,994.46 1565.07,994.46 C1568.49002,994.46 1571.09999,993.800007 1572.9,992.48 C1574.70001,991.159993 1575.6,989.240013 1575.6,986.72 C1575.6,985.339993 1575.195,984.170005 1574.385,983.21 C1573.575,982.249995 1572.52501,981.410004 1571.235,980.69 C1569.94499,979.969996 1568.46001,979.310003 1566.78,978.71 C1565.09999,978.109997 1563.39001,977.480003 1561.65,976.82 C1559.84999,976.159997 1558.06501,975.410004 1556.295,974.57 C1554.52499,973.729996 1552.93501,972.680006 1551.525,971.42 C1550.11499,970.159994 1548.99,968.645009 1548.15,966.875 C1547.31,965.104991 1546.89,962.960013 1546.89,960.44 C1546.89,957.859987 1547.325,955.55001 1548.195,953.51 C1549.065,951.46999 1550.25,949.730007 1551.75,948.29 C1553.25,946.849993 1555.03499,945.710004 1557.105,944.87 C1559.17501,944.029996 1561.40999,943.520001 1563.81,943.34 L1563.81,934.7 L1571.28,934.7 L1571.28,943.52 C1574.10001,943.940002 1576.76999,944.704994 1579.29,945.815 C1581.81001,946.925006 1584.32999,948.379991 1586.85,950.18 L1579.74,958.91 C1577.87999,957.409993 1575.90001,956.150005 1573.8,955.13 C1571.69999,954.109995 1569.36001,953.6 1566.78,953.6 C1565.88,953.6 1564.98,953.734999 1564.08,954.005 C1563.18,954.275001 1562.37,954.664997 1561.65,955.175 C1560.93,955.685003 1560.345,956.329996 1559.895,957.11 C1559.445,957.890004 1559.22,958.819995 1559.22,959.9 C1559.22,960.980005 1559.61,961.894996 1560.39,962.645 C1561.17,963.395004 1562.20499,964.084997 1563.495,964.715 C1564.78501,965.345003 1566.25499,965.929997 1567.905,966.47 C1569.55501,967.010003 1571.25,967.609997 1572.99,968.27 C1574.85001,968.990004 1576.72499,969.814995 1578.615,970.745 C1580.50501,971.675005 1582.18499,972.814993 1583.655,974.165 C1585.12501,975.515007 1586.325,977.14999 1587.255,979.07 C1588.185,980.99001 1588.65,983.269987 1588.65,985.91 C1588.65,988.670014 1588.17,991.129989 1587.21,993.29 C1586.25,995.450011 1584.94501,997.294992 1583.295,998.825 C1581.64499,1000.35501 1579.72501,1001.6 1577.535,1002.56 C1575.34499,1003.52 1573.05001,1004.18 1570.65,1004.54 L1570.65,1013.54 L1563.27,1013.54 L1563.27,1004.9 C1559.18998,1004.6 1555.51502,1003.61001 1552.245,1001.93 C1548.97498,1000.24999 1545.81002,997.910015 1542.75,994.91 L1550.85,987.08 Z M1632.93,952.25 C1631.06999,956.090019 1629.04501,960.364976 1626.855,965.075 C1624.66499,969.785024 1622.47501,974.584976 1620.285,979.475 C1618.09499,984.365024 1615.96501,989.164976 1613.895,993.875 C1611.82499,998.585024 1609.98001,1002.88998 1608.36,1006.79 L1596.93,1001.66 C1598.91001,996.919976 1600.93499,992.315022 1603.005,987.845 C1605.07501,983.374978 1607.06999,979.13002 1608.99,975.11 C1610.91001,971.08998 1612.70999,967.370017 1614.39,963.95 C1616.07001,960.529983 1617.50999,957.530013 1618.71,954.95 L1592.34,954.95 L1592.34,944.24 L1632.93,944.24 L1632.93,952.25 Z M1645.17,997.97 C1650.09002,995.869989 1654.39498,993.395014 1658.085,990.545 C1661.77502,987.694986 1664.51999,984.050022 1666.32,979.61 C1664.93999,980.750006 1663.42501,981.634997 1661.775,982.265 C1660.12499,982.895003 1658.28001,983.21 1656.24,983.21 C1653.47999,983.21 1650.94501,982.700005 1648.635,981.68 C1646.32499,980.66 1644.33001,979.280009 1642.65,977.54 C1640.96999,975.799991 1639.665,973.775012 1638.735,971.465 C1637.805,969.154988 1637.34,966.680013 1637.34,964.04 C1637.34,961.159986 1637.835,958.460013 1638.825,955.94 C1639.815,953.419987 1641.22499,951.215009 1643.055,949.325 C1644.88501,947.434991 1647.07499,945.935006 1649.625,944.825 C1652.17501,943.714994 1655.00998,943.16 1658.13,943.16 C1661.79002,943.16 1665.05999,943.834993 1667.94,945.185 C1670.82001,946.535007 1673.24999,948.334989 1675.23,950.585 C1677.21001,952.835011 1678.72499,955.444985 1679.775,958.415 C1680.82501,961.385015 1681.35,964.519983 1681.35,967.82 C1681.35,972.680024 1680.49501,977.179979 1678.785,981.32 C1677.07499,985.460021 1674.78001,989.224983 1671.9,992.615 C1669.01999,996.005017 1665.66002,998.974987 1661.82,1001.525 C1657.97998,1004.07501 1653.93002,1006.21999 1649.67,1007.96 L1645.17,997.97 Z M1668.57,967.55 C1668.75,965.749991 1668.675,964.025008 1668.345,962.375 C1668.015,960.724992 1667.445,959.255006 1666.635,957.965 C1665.825,956.674994 1664.76001,955.640004 1663.44,954.86 C1662.12,954.079996 1660.56001,953.69 1658.76,953.69 C1657.37999,953.69 1656.16501,953.944997 1655.115,954.455 C1654.06499,954.965003 1653.165,955.669996 1652.415,956.57 C1651.665,957.470004 1651.095,958.489994 1650.705,959.63 C1650.315,960.770006 1650.12,961.969994 1650.12,963.23 C1650.12,966.290015 1651.00499,968.629992 1652.775,970.25 C1654.54501,971.870008 1656.68999,972.68 1659.21,972.68 C1661.07001,972.68 1662.83999,972.230004 1664.52,971.33 C1666.20001,970.429996 1667.54999,969.170008 1668.57,967.55 Z" id="Getklaimed.comfor$79" fill="#FFFFFF" fill-rule="nonzero"></path>
        <rect id="Rectangle" fill="#000000" x="262" y="1234" width="1802" height="313" rx="50"></rect>
        <path d="M487.89,1396.53 L487.89,1385.64 L515.88,1385.64 L515.88,1410.21 C512.579984,1414.65002 508.545024,1417.90499 503.775,1419.975 C499.004976,1422.04501 493.890027,1423.08 488.43,1423.08 C483.629976,1423.08 479.19002,1422.28501 475.11,1420.695 C471.02998,1419.10499 467.490015,1416.88501 464.49,1414.035 C461.489985,1411.18499 459.135009,1407.76502 457.425,1403.775 C455.714991,1399.78498 454.86,1395.36002 454.86,1390.5 C454.86,1385.87998 455.744991,1381.59002 457.515,1377.63 C459.285009,1373.66998 461.684985,1370.22001 464.715,1367.28 C467.745015,1364.33999 471.29998,1362.04501 475.38,1360.395 C479.46002,1358.74499 483.809977,1357.92 488.43,1357.92 C493.770027,1357.92 498.644978,1358.98499 503.055,1361.115 C507.465022,1363.24501 511.409983,1366.31998 514.89,1370.34 L505.98,1378.08 C503.759989,1375.49999 501.180015,1373.37001 498.24,1371.69 C495.299985,1370.00999 492.030018,1369.17 488.43,1369.17 C485.549986,1369.17 482.910012,1369.72499 480.51,1370.835 C478.109988,1371.94501 476.025009,1373.45999 474.255,1375.38 C472.484991,1377.30001 471.105005,1379.54999 470.115,1382.13 C469.124995,1384.71001 468.63,1387.49998 468.63,1390.5 C468.63,1393.68002 469.094995,1396.57499 470.025,1399.185 C470.955005,1401.79501 472.289991,1404.02999 474.03,1405.89 C475.770009,1407.75001 477.854988,1409.20499 480.285,1410.255 C482.715012,1411.30501 485.429985,1411.83 488.43,1411.83 C491.010013,1411.83 493.589987,1411.335 496.17,1410.345 C498.750013,1409.355 501.02999,1407.90001 503.01,1405.98 L503.01,1396.53 L487.89,1396.53 Z M539.75,1401.48 C540.230002,1404.72002 541.47499,1407.41999 543.485,1409.58 C545.49501,1411.74001 548.209983,1412.82 551.63,1412.82 C554.690015,1412.82 557.119991,1412.22001 558.92,1411.02 C560.720009,1409.81999 562.399992,1408.08001 563.96,1405.8 L572.33,1411.47 C569.629987,1415.43002 566.630017,1418.35499 563.33,1420.245 C560.029984,1422.13501 555.830026,1423.08 550.73,1423.08 C547.129982,1423.08 543.860015,1422.48001 540.92,1421.28 C537.979985,1420.08 535.460011,1418.41501 533.36,1416.285 C531.25999,1414.15499 529.640006,1411.60501 528.5,1408.635 C527.359994,1405.66499 526.79,1402.41002 526.79,1398.87 C526.79,1395.26998 527.404994,1391.94002 528.635,1388.88 C529.865006,1385.81998 531.559989,1383.15001 533.72,1380.87 C535.880011,1378.58999 538.414985,1376.80501 541.325,1375.515 C544.235015,1374.22499 547.399983,1373.58 550.82,1373.58 C554.120017,1373.58 557.164986,1374.13499 559.955,1375.245 C562.745014,1376.35501 565.15999,1377.86999 567.2,1379.79 C569.24001,1381.71001 570.829994,1384.01999 571.97,1386.72 C573.110006,1389.42001 573.68,1392.32998 573.68,1395.45 C573.68,1396.41 573.620001,1397.41499 573.5,1398.465 C573.379999,1399.51501 573.230001,1400.52 573.05,1401.48 L539.75,1401.48 Z M560.63,1392.75 C560.509999,1389.86999 559.565009,1387.62001 557.795,1386 C556.024991,1384.37999 553.820013,1383.57 551.18,1383.57 C548.119985,1383.57 545.720009,1384.42499 543.98,1386.135 C542.239991,1387.84501 541.040003,1390.04999 540.38,1392.75 L560.63,1392.75 Z M598.27,1385.28 L598.27,1405.71 C598.27,1406.37 598.329999,1407.03 598.45,1407.69 C598.630001,1409.07001 599.019997,1410.165 599.62,1410.975 C600.220003,1411.785 601.209993,1412.19 602.59,1412.19 C603.610005,1412.19 604.509996,1412.07 605.29,1411.83 C606.070004,1411.59 606.879996,1411.26 607.72,1410.84 L611.68,1420.29 C610.119992,1421.19 608.32001,1421.88 606.28,1422.36 C604.23999,1422.84 602.290009,1423.08 600.43,1423.08 C596.709981,1423.08 593.650012,1422.15001 591.25,1420.29 C588.849988,1418.42999 587.230004,1415.97002 586.39,1412.91 C586.029998,1411.70999 585.790001,1410.43501 585.67,1409.085 C585.549999,1407.73499 585.49,1406.37001 585.49,1404.99 L585.49,1385.28 L579.82,1385.28 L579.82,1374.66 L585.49,1374.66 L587.47,1364.22 L598.27,1364.22 L598.27,1374.66 L610.33,1374.66 L610.33,1385.28 L598.27,1385.28 Z M687.41,1374.66 L667.97,1422 L657.53,1422 L639.71,1374.66 L653.84,1374.66 L663.38,1403.82 L663.56,1403.82 L673.19,1374.66 L687.41,1374.66 Z M705.7,1401.48 C706.180002,1404.72002 707.42499,1407.41999 709.435,1409.58 C711.44501,1411.74001 714.159983,1412.82 717.58,1412.82 C720.640015,1412.82 723.069991,1412.22001 724.87,1411.02 C726.670009,1409.81999 728.349992,1408.08001 729.91,1405.8 L738.28,1411.47 C735.579987,1415.43002 732.580017,1418.35499 729.28,1420.245 C725.979984,1422.13501 721.780026,1423.08 716.68,1423.08 C713.079982,1423.08 709.810015,1422.48001 706.87,1421.28 C703.929985,1420.08 701.41001,1418.41501 699.31,1416.285 C697.20999,1414.15499 695.590006,1411.60501 694.45,1408.635 C693.309994,1405.66499 692.74,1402.41002 692.74,1398.87 C692.74,1395.26998 693.354994,1391.94002 694.585,1388.88 C695.815006,1385.81998 697.509989,1383.15001 699.67,1380.87 C701.830011,1378.58999 704.364985,1376.80501 707.275,1375.515 C710.185015,1374.22499 713.349983,1373.58 716.77,1373.58 C720.070017,1373.58 723.114986,1374.13499 725.905,1375.245 C728.695014,1376.35501 731.10999,1377.86999 733.15,1379.79 C735.19001,1381.71001 736.779994,1384.01999 737.92,1386.72 C739.060006,1389.42001 739.63,1392.32998 739.63,1395.45 C739.63,1396.41 739.570001,1397.41499 739.45,1398.465 C739.329999,1399.51501 739.180001,1400.52 739,1401.48 L705.7,1401.48 Z M726.58,1392.75 C726.459999,1389.86999 725.515009,1387.62001 723.745,1386 C721.974991,1384.37999 719.770013,1383.57 717.13,1383.57 C714.069985,1383.57 711.670009,1384.42499 709.93,1386.135 C708.189991,1387.84501 706.990003,1390.04999 706.33,1392.75 L726.58,1392.75 Z M761.97,1374.66 L762.96,1381.14 C764.88001,1378.43999 767.144987,1376.50501 769.755,1375.335 C772.365013,1374.16499 774.989987,1373.58 777.63,1373.58 C780.210013,1373.58 782.579989,1374.13499 784.74,1375.245 C786.900011,1376.35501 788.729993,1377.86999 790.23,1379.79 C792.090009,1382.19001 793.259998,1384.87499 793.74,1387.845 C794.220002,1390.81501 794.46,1394.00998 794.46,1397.43 L794.46,1422 L781.68,1422 L781.68,1398.06 C781.68,1396.31999 781.605001,1394.53501 781.455,1392.705 C781.304999,1390.87499 780.9,1389.27001 780.24,1387.89 C779.639997,1386.68999 778.785006,1385.835 777.675,1385.325 C776.564994,1384.815 775.320007,1384.56 773.94,1384.56 C772.01999,1384.56 770.130009,1385.08499 768.27,1386.135 C766.409991,1387.18501 764.880006,1388.66999 763.68,1390.59 L763.68,1422 L750.9,1422 L750.9,1374.66 L761.97,1374.66 Z M821.84,1385.28 L821.84,1405.71 C821.84,1406.37 821.899999,1407.03 822.02,1407.69 C822.200001,1409.07001 822.589997,1410.165 823.19,1410.975 C823.790003,1411.785 824.779993,1412.19 826.16,1412.19 C827.180005,1412.19 828.079996,1412.07 828.86,1411.83 C829.640004,1411.59 830.449996,1411.26 831.29,1410.84 L835.25,1420.29 C833.689992,1421.19 831.89001,1421.88 829.85,1422.36 C827.80999,1422.84 825.860009,1423.08 824,1423.08 C820.279981,1423.08 817.220012,1422.15001 814.82,1420.29 C812.419988,1418.42999 810.800004,1415.97002 809.96,1412.91 C809.599998,1411.70999 809.360001,1410.43501 809.24,1409.085 C809.119999,1407.73499 809.06,1406.37001 809.06,1404.99 L809.06,1385.28 L803.39,1385.28 L803.39,1374.66 L809.06,1374.66 L811.04,1364.22 L821.84,1364.22 L821.84,1374.66 L833.9,1374.66 L833.9,1385.28 L821.84,1385.28 Z M876.67,1422 L875.68,1415.52 C873.75999,1418.22001 871.495013,1420.15499 868.885,1421.325 C866.274987,1422.49501 863.650013,1423.08 861.01,1423.08 C858.429987,1423.08 856.060011,1422.52501 853.9,1421.415 C851.739989,1420.30499 849.910008,1418.79001 848.41,1416.87 C846.549991,1414.46999 845.380002,1411.78501 844.9,1408.815 C844.419998,1405.84499 844.18,1402.65002 844.18,1399.23 L844.18,1374.66 L856.96,1374.66 L856.96,1398.6 C856.96,1400.34001 857.034999,1402.12499 857.185,1403.955 C857.335001,1405.78501 857.739997,1407.38999 858.4,1408.77 C859.000003,1409.97001 859.854994,1410.825 860.965,1411.335 C862.075006,1411.845 863.319993,1412.1 864.7,1412.1 C866.62001,1412.1 868.509991,1411.57501 870.37,1410.525 C872.230009,1409.47499 873.759994,1407.99001 874.96,1406.07 L874.96,1374.66 L887.74,1374.66 L887.74,1422 L876.67,1422 Z M914.22,1380.96 C915.600007,1378.73999 917.204991,1376.95501 919.035,1375.605 C920.865009,1374.25499 922.949988,1373.58 925.29,1373.58 C926.490006,1373.58 927.599995,1373.685 928.62,1373.895 C929.640005,1374.105 930.569996,1374.36 931.41,1374.66 L928.35,1385.82 C926.969993,1385.1 925.470008,1384.74 923.85,1384.74 C921.989991,1384.74 920.280008,1385.22 918.72,1386.18 C917.16,1387.14 915.900005,1388.39999 914.94,1389.96 L914.94,1422 L902.16,1422 L902.16,1374.66 L913.23,1374.66 L914.22,1380.96 Z M947.54,1401.48 C948.020002,1404.72002 949.26499,1407.41999 951.275,1409.58 C953.28501,1411.74001 955.999983,1412.82 959.42,1412.82 C962.480015,1412.82 964.909991,1412.22001 966.71,1411.02 C968.510009,1409.81999 970.189992,1408.08001 971.75,1405.8 L980.12,1411.47 C977.419987,1415.43002 974.420016,1418.35499 971.12,1420.245 C967.819984,1422.13501 963.620026,1423.08 958.52,1423.08 C954.919982,1423.08 951.650015,1422.48001 948.71,1421.28 C945.769985,1420.08 943.250011,1418.41501 941.15,1416.285 C939.04999,1414.15499 937.430006,1411.60501 936.29,1408.635 C935.149994,1405.66499 934.58,1402.41002 934.58,1398.87 C934.58,1395.26998 935.194994,1391.94002 936.425,1388.88 C937.655006,1385.81998 939.349989,1383.15001 941.51,1380.87 C943.670011,1378.58999 946.204985,1376.80501 949.115,1375.515 C952.025015,1374.22499 955.189983,1373.58 958.61,1373.58 C961.910016,1373.58 964.954986,1374.13499 967.745,1375.245 C970.535014,1376.35501 972.94999,1377.86999 974.99,1379.79 C977.03001,1381.71001 978.619994,1384.01999 979.76,1386.72 C980.900006,1389.42001 981.47,1392.32998 981.47,1395.45 C981.47,1396.41 981.410001,1397.41499 981.29,1398.465 C981.169999,1399.51501 981.020001,1400.52 980.84,1401.48 L947.54,1401.48 Z M968.42,1392.75 C968.299999,1389.86999 967.355009,1387.62001 965.585,1386 C963.814991,1384.37999 961.610013,1383.57 958.97,1383.57 C955.909985,1383.57 953.510009,1384.42499 951.77,1386.135 C950.029991,1387.84501 948.830003,1390.04999 948.17,1392.75 L968.42,1392.75 Z M1030.54,1417.23 C1028.19999,1419.33001 1025.63501,1420.83 1022.845,1421.73 C1020.05499,1422.63 1016.95002,1423.08 1013.53,1423.08 C1010.04998,1423.08 1006.84001,1422.48001 1003.9,1421.28 C1000.95999,1420.08 998.425011,1418.38501 996.295,1416.195 C994.164989,1414.00499 992.5,1411.39502 991.3,1408.365 C990.099994,1405.33498 989.5,1401.99002 989.5,1398.33 C989.5,1394.90998 990.099994,1391.68502 991.3,1388.655 C992.5,1385.62498 994.164989,1383.00001 996.295,1380.78 C998.425011,1378.55999 1000.98999,1376.80501 1003.99,1375.515 C1006.99002,1374.22499 1010.28998,1373.58 1013.89,1373.58 C1020.25003,1373.58 1025.79998,1375.52998 1030.54,1379.43 L1023.97,1388.34 C1022.64999,1387.13999 1021.25501,1386.21 1019.785,1385.55 C1018.31499,1384.89 1016.65001,1384.56 1014.79,1384.56 C1012.98999,1384.56 1011.34001,1384.92 1009.84,1385.64 C1008.33999,1386.36 1007.05001,1387.34999 1005.97,1388.61 C1004.88999,1389.87001 1004.05,1391.33999 1003.45,1393.02 C1002.85,1394.70001 1002.55,1396.46999 1002.55,1398.33 C1002.55,1400.31001 1002.865,1402.13999 1003.495,1403.82 C1004.125,1405.50001 1004.97999,1406.95499 1006.06,1408.185 C1007.14001,1409.41501 1008.41499,1410.375 1009.885,1411.065 C1011.35501,1411.755 1012.92999,1412.1 1014.61,1412.1 C1016.35001,1412.1 1017.95499,1411.83 1019.425,1411.29 C1020.89501,1410.75 1022.31999,1409.82001 1023.7,1408.5 L1030.54,1417.23 Z M1069.44,1422 L1068.45,1417.95 C1066.88999,1419.87001 1064.98501,1421.205 1062.735,1421.955 C1060.48499,1422.705 1058.10001,1423.08 1055.58,1423.08 C1053.35999,1423.08 1051.23001,1422.75 1049.19,1422.09 C1047.14999,1421.43 1045.33501,1420.47001 1043.745,1419.21 C1042.15499,1417.94999 1040.895,1416.39001 1039.965,1414.53 C1039.035,1412.66999 1038.57,1410.51001 1038.57,1408.05 C1038.57,1405.16999 1039.18499,1402.74001 1040.415,1400.76 C1041.64501,1398.77999 1043.23499,1397.20501 1045.185,1396.035 C1047.13501,1394.86499 1049.33999,1394.025 1051.8,1393.515 C1054.26001,1393.005 1056.71999,1392.75 1059.18,1392.75 C1061.76001,1392.75 1064.60998,1393.08 1067.73,1393.74 L1067.73,1393.02 C1067.73,1390.01998 1067.04001,1387.68001 1065.66,1386 C1064.27999,1384.31999 1061.85002,1383.48 1058.37,1383.48 C1055.66999,1383.48 1053.13501,1383.9 1050.765,1384.74 C1048.39499,1385.58 1046.16001,1386.53999 1044.06,1387.62 L1040.64,1378.44 C1043.70002,1376.93999 1046.96998,1375.755 1050.45,1374.885 C1053.93002,1374.015 1057.43998,1373.58 1060.98,1373.58 C1067.58003,1373.58 1072.48498,1375.36498 1075.695,1378.935 C1078.90502,1382.50502 1080.51,1387.37997 1080.51,1393.56 L1080.51,1422 L1069.44,1422 Z M1067.73,1401.39 C1065.26999,1400.85 1063.11001,1400.58 1061.25,1400.58 C1060.04999,1400.58 1058.85001,1400.7 1057.65,1400.94 C1056.44999,1401.18 1055.37,1401.585 1054.41,1402.155 C1053.45,1402.725 1052.655,1403.475 1052.025,1404.405 C1051.395,1405.335 1051.08,1406.48999 1051.08,1407.87 C1051.08,1409.97001 1051.79999,1411.54499 1053.24,1412.595 C1054.68001,1413.64501 1056.35999,1414.17 1058.28,1414.17 C1060.14001,1414.17 1061.83499,1413.795 1063.365,1413.045 C1064.89501,1412.295 1066.34999,1411.32001 1067.73,1410.12 L1067.73,1401.39 Z M1105.55,1374.66 L1106.54,1380.51 C1107.38,1379.24999 1108.39999,1378.17 1109.6,1377.27 C1110.80001,1376.37 1112.04499,1375.65 1113.335,1375.11 C1114.62501,1374.57 1115.95999,1374.18 1117.34,1373.94 C1118.72001,1373.7 1120.00999,1373.58 1121.21,1373.58 C1124.33002,1373.58 1127.23999,1374.23999 1129.94,1375.56 C1132.64001,1376.88001 1134.98,1378.66499 1136.96,1380.915 C1138.94001,1383.16501 1140.48499,1385.80498 1141.595,1388.835 C1142.70501,1391.86502 1143.26,1395.08998 1143.26,1398.51 C1143.26,1401.87002 1142.70501,1405.03499 1141.595,1408.005 C1140.48499,1410.97501 1138.94001,1413.56999 1136.96,1415.79 C1134.98,1418.01001 1132.64001,1419.77999 1129.94,1421.1 C1127.23999,1422.42001 1124.30002,1423.08 1121.12,1423.08 C1118.83999,1423.08 1116.41001,1422.66 1113.83,1421.82 C1111.24999,1420.98 1109.06001,1419.51001 1107.26,1417.41 L1107.26,1444.5 L1094.48,1444.5 L1094.48,1374.66 L1105.55,1374.66 Z M1107.26,1406.97 C1108.82001,1408.89001 1110.52999,1410.225 1112.39,1410.975 C1114.25001,1411.725 1116.19999,1412.1 1118.24,1412.1 C1120.28001,1412.1 1122.04999,1411.68 1123.55,1410.84 C1125.05001,1410 1126.295,1408.92001 1127.285,1407.6 C1128.275,1406.27999 1129.01,1404.79501 1129.49,1403.145 C1129.97,1401.49499 1130.21,1399.83001 1130.21,1398.15 C1130.21,1396.40999 1129.94,1394.71501 1129.4,1393.065 C1128.86,1391.41499 1128.08001,1389.96001 1127.06,1388.7 C1126.03999,1387.43999 1124.81001,1386.435 1123.37,1385.685 C1121.92999,1384.935 1120.28001,1384.56 1118.42,1384.56 C1116.37999,1384.56 1114.35501,1385.025 1112.345,1385.955 C1110.33499,1386.885 1108.64001,1388.51999 1107.26,1390.86 L1107.26,1406.97 Z M1154.44,1422 L1154.44,1374.66 L1167.22,1374.66 L1167.22,1422 L1154.44,1422 Z M1154.44,1368.09 L1154.44,1357.2 L1167.22,1357.2 L1167.22,1368.09 L1154.44,1368.09 Z M1194.96,1385.28 L1194.96,1405.71 C1194.96,1406.37 1195.02,1407.03 1195.14,1407.69 C1195.32,1409.07001 1195.71,1410.165 1196.31,1410.975 C1196.91,1411.785 1197.89999,1412.19 1199.28,1412.19 C1200.30001,1412.19 1201.2,1412.07 1201.98,1411.83 C1202.76,1411.59 1203.57,1411.26 1204.41,1410.84 L1208.37,1420.29 C1206.80999,1421.19 1205.01001,1421.88 1202.97,1422.36 C1200.92999,1422.84 1198.98001,1423.08 1197.12,1423.08 C1193.39998,1423.08 1190.34001,1422.15001 1187.94,1420.29 C1185.53999,1418.42999 1183.92,1415.97002 1183.08,1412.91 C1182.72,1411.70999 1182.48,1410.43501 1182.36,1409.085 C1182.24,1407.73499 1182.18,1406.37001 1182.18,1404.99 L1182.18,1385.28 L1176.51,1385.28 L1176.51,1374.66 L1182.18,1374.66 L1184.16,1364.22 L1194.96,1364.22 L1194.96,1374.66 L1207.02,1374.66 L1207.02,1385.28 L1194.96,1385.28 Z M1246.37,1422 L1245.38,1417.95 C1243.81999,1419.87001 1241.91501,1421.205 1239.665,1421.955 C1237.41499,1422.705 1235.03001,1423.08 1232.51,1423.08 C1230.28999,1423.08 1228.16001,1422.75 1226.12,1422.09 C1224.07999,1421.43 1222.26501,1420.47001 1220.675,1419.21 C1219.08499,1417.94999 1217.825,1416.39001 1216.895,1414.53 C1215.965,1412.66999 1215.5,1410.51001 1215.5,1408.05 C1215.5,1405.16999 1216.11499,1402.74001 1217.345,1400.76 C1218.57501,1398.77999 1220.16499,1397.20501 1222.115,1396.035 C1224.06501,1394.86499 1226.26999,1394.025 1228.73,1393.515 C1231.19001,1393.005 1233.64999,1392.75 1236.11,1392.75 C1238.69001,1392.75 1241.53998,1393.08 1244.66,1393.74 L1244.66,1393.02 C1244.66,1390.01998 1243.97001,1387.68001 1242.59,1386 C1241.20999,1384.31999 1238.78002,1383.48 1235.3,1383.48 C1232.59999,1383.48 1230.06501,1383.9 1227.695,1384.74 C1225.32499,1385.58 1223.09001,1386.53999 1220.99,1387.62 L1217.57,1378.44 C1220.63002,1376.93999 1223.89998,1375.755 1227.38,1374.885 C1230.86002,1374.015 1234.36998,1373.58 1237.91,1373.58 C1244.51003,1373.58 1249.41498,1375.36498 1252.625,1378.935 C1255.83502,1382.50502 1257.44,1387.37997 1257.44,1393.56 L1257.44,1422 L1246.37,1422 Z M1244.66,1401.39 C1242.19999,1400.85 1240.04001,1400.58 1238.18,1400.58 C1236.97999,1400.58 1235.78001,1400.7 1234.58,1400.94 C1233.37999,1401.18 1232.3,1401.585 1231.34,1402.155 C1230.38,1402.725 1229.585,1403.475 1228.955,1404.405 C1228.325,1405.335 1228.01,1406.48999 1228.01,1407.87 C1228.01,1409.97001 1228.72999,1411.54499 1230.17,1412.595 C1231.61001,1413.64501 1233.28999,1414.17 1235.21,1414.17 C1237.07001,1414.17 1238.76499,1413.795 1240.295,1413.045 C1241.82501,1412.295 1243.27999,1411.32001 1244.66,1410.12 L1244.66,1401.39 Z M1284.19,1422 L1271.41,1422 L1271.41,1354.5 L1284.19,1354.5 L1284.19,1422 Z M1298.61,1422 L1298.61,1374.66 L1311.39,1374.66 L1311.39,1422 L1298.61,1422 Z M1298.61,1368.09 L1298.61,1357.2 L1311.39,1357.2 L1311.39,1368.09 L1298.61,1368.09 Z M1351.55,1387.53 C1350.34999,1386.44999 1348.94001,1385.52 1347.32,1384.74 C1345.69999,1383.96 1343.99001,1383.57 1342.19,1383.57 C1340.98999,1383.57 1339.925,1383.885 1338.995,1384.515 C1338.065,1385.145 1337.6,1386.02999 1337.6,1387.17 C1337.6,1388.67001 1338.34999,1389.855 1339.85,1390.725 C1341.35001,1391.595 1343.08999,1392.45 1345.07,1393.29 C1346.57001,1393.95 1348.14499,1394.655 1349.795,1395.405 C1351.44501,1396.155 1352.94499,1397.06999 1354.295,1398.15 C1355.64501,1399.23001 1356.755,1400.56499 1357.625,1402.155 C1358.495,1403.74501 1358.93,1405.64999 1358.93,1407.87 C1358.93,1410.51001 1358.42001,1412.77499 1357.4,1414.665 C1356.37999,1416.55501 1355.01501,1418.12999 1353.305,1419.39 C1351.59499,1420.65001 1349.64501,1421.58 1347.455,1422.18 C1345.26499,1422.78 1343.03001,1423.08 1340.75,1423.08 C1337.02998,1423.08 1333.58002,1422.39001 1330.4,1421.01 C1327.21998,1419.62999 1324.31001,1417.62001 1321.67,1414.98 L1328.96,1407.42 C1330.76001,1409.16001 1332.49999,1410.525 1334.18,1411.515 C1335.86001,1412.505 1337.83999,1413 1340.12,1413 C1340.78,1413 1341.47,1412.925 1342.19,1412.775 C1342.91,1412.625 1343.555,1412.37 1344.125,1412.01 C1344.695,1411.65 1345.175,1411.215 1345.565,1410.705 C1345.955,1410.195 1346.15,1409.58 1346.15,1408.86 C1346.15,1408.02 1345.895,1407.285 1345.385,1406.655 C1344.875,1406.025 1344.215,1405.455 1343.405,1404.945 C1342.595,1404.435 1341.63501,1403.955 1340.525,1403.505 C1339.41499,1403.055 1338.29001,1402.56 1337.15,1402.02 C1335.70999,1401.42 1334.28501,1400.745 1332.875,1399.995 C1331.46499,1399.245 1330.20501,1398.33001 1329.095,1397.25 C1327.98499,1396.16999 1327.07,1394.89501 1326.35,1393.425 C1325.63,1391.95499 1325.27,1390.17001 1325.27,1388.07 C1325.27,1385.66999 1325.75,1383.57001 1326.71,1381.77 C1327.67,1379.96999 1328.92999,1378.45501 1330.49,1377.225 C1332.05001,1375.99499 1333.84999,1375.08 1335.89,1374.48 C1337.93001,1373.88 1340.02999,1373.58 1342.19,1373.58 C1345.37002,1373.58 1348.33999,1374.08999 1351.1,1375.11 C1353.86001,1376.13001 1356.34999,1377.68999 1358.57,1379.79 L1351.55,1387.53 Z M1384.42,1385.28 L1384.42,1405.71 C1384.42,1406.37 1384.48,1407.03 1384.6,1407.69 C1384.78,1409.07001 1385.17,1410.165 1385.77,1410.975 C1386.37,1411.785 1387.35999,1412.19 1388.74,1412.19 C1389.76001,1412.19 1390.66,1412.07 1391.44,1411.83 C1392.22,1411.59 1393.03,1411.26 1393.87,1410.84 L1397.83,1420.29 C1396.26999,1421.19 1394.47001,1421.88 1392.43,1422.36 C1390.38999,1422.84 1388.44001,1423.08 1386.58,1423.08 C1382.85998,1423.08 1379.80001,1422.15001 1377.4,1420.29 C1374.99999,1418.42999 1373.38,1415.97002 1372.54,1412.91 C1372.18,1411.70999 1371.94,1410.43501 1371.82,1409.085 C1371.7,1407.73499 1371.64,1406.37001 1371.64,1404.99 L1371.64,1385.28 L1365.97,1385.28 L1365.97,1374.66 L1371.64,1374.66 L1373.62,1364.22 L1384.42,1364.22 L1384.42,1374.66 L1396.48,1374.66 L1396.48,1385.28 L1384.42,1385.28 Z M1407.03,1422 L1407.03,1408.59 L1420.8,1408.59 L1420.8,1422 L1407.03,1422 Z M1433.42,1422 L1433.42,1374.66 L1446.2,1374.66 L1446.2,1422 L1433.42,1422 Z M1433.42,1368.09 L1433.42,1357.2 L1446.2,1357.2 L1446.2,1368.09 L1433.42,1368.09 Z M1482.22,1373.58 C1485.82002,1373.58 1489.13498,1374.20999 1492.165,1375.47 C1495.19502,1376.73001 1497.80499,1378.46999 1499.995,1380.69 C1502.18501,1382.91001 1503.89499,1385.53498 1505.125,1388.565 C1506.35501,1391.59502 1506.97,1394.84998 1506.97,1398.33 C1506.97,1401.81002 1506.35501,1405.06498 1505.125,1408.095 C1503.89499,1411.12502 1502.18501,1413.74999 1499.995,1415.97 C1497.80499,1418.19001 1495.19502,1419.92999 1492.165,1421.19 C1489.13498,1422.45001 1485.82002,1423.08 1482.22,1423.08 C1478.61998,1423.08 1475.29002,1422.45001 1472.23,1421.19 C1469.16998,1419.92999 1466.54501,1418.19001 1464.355,1415.97 C1462.16499,1413.74999 1460.45501,1411.12502 1459.225,1408.095 C1457.99499,1405.06498 1457.38,1401.81002 1457.38,1398.33 C1457.38,1394.84998 1457.99499,1391.59502 1459.225,1388.565 C1460.45501,1385.53498 1462.16499,1382.91001 1464.355,1380.69 C1466.54501,1378.46999 1469.16998,1376.73001 1472.23,1375.47 C1475.29002,1374.20999 1478.61998,1373.58 1482.22,1373.58 Z M1493.92,1398.33 C1493.92,1396.40999 1493.635,1394.61001 1493.065,1392.93 C1492.495,1391.24999 1491.70001,1389.79501 1490.68,1388.565 C1489.65999,1387.33499 1488.43,1386.36 1486.99,1385.64 C1485.54999,1384.92 1483.96001,1384.56 1482.22,1384.56 C1480.47999,1384.56 1478.87501,1384.92 1477.405,1385.64 C1475.93499,1386.36 1474.69001,1387.33499 1473.67,1388.565 C1472.64999,1389.79501 1471.855,1391.24999 1471.285,1392.93 C1470.715,1394.61001 1470.43,1396.40999 1470.43,1398.33 C1470.43,1400.25001 1470.715,1402.04999 1471.285,1403.73 C1471.855,1405.41001 1472.64999,1406.86499 1473.67,1408.095 C1474.69001,1409.32501 1475.93499,1410.3 1477.405,1411.02 C1478.87501,1411.74 1480.47999,1412.1 1482.22,1412.1 C1483.96001,1412.1 1485.54999,1411.74 1486.99,1411.02 C1488.43,1410.3 1489.65999,1409.32501 1490.68,1408.095 C1491.70001,1406.86499 1492.495,1405.41001 1493.065,1403.73 C1493.635,1402.04999 1493.92,1400.25001 1493.92,1398.33 Z M1568.57,1365.93 C1566.58999,1364.90999 1564.40001,1364.4 1562,1364.4 C1560.97999,1364.4 1560.155,1364.52 1559.525,1364.76 C1558.895,1365 1558.4,1365.36 1558.04,1365.84 C1557.56,1366.5 1557.23,1367.325 1557.05,1368.315 C1556.87,1369.305 1556.78,1370.39999 1556.78,1371.6 L1556.78,1374.66 L1568.57,1374.66 L1568.57,1385.28 L1556.78,1385.28 L1556.78,1422 L1544,1422 L1544,1385.28 L1538.87,1385.28 L1538.87,1374.66 L1544,1374.66 L1544,1370.88 C1544,1368.17999 1544.27,1365.78001 1544.81,1363.68 C1545.35,1361.57999 1546.21999,1359.78001 1547.42,1358.28 C1548.74001,1356.65999 1550.47999,1355.445 1552.64,1354.635 C1554.80001,1353.825 1557.49998,1353.42 1560.74,1353.42 C1562.78001,1353.42 1564.78999,1353.66 1566.77,1354.14 C1568.75001,1354.62 1570.66999,1355.28 1572.53,1356.12 L1568.57,1365.93 Z M1598.47,1373.58 C1602.07002,1373.58 1605.38498,1374.20999 1608.415,1375.47 C1611.44502,1376.73001 1614.05499,1378.46999 1616.245,1380.69 C1618.43501,1382.91001 1620.14499,1385.53498 1621.375,1388.565 C1622.60501,1391.59502 1623.22,1394.84998 1623.22,1398.33 C1623.22,1401.81002 1622.60501,1405.06498 1621.375,1408.095 C1620.14499,1411.12502 1618.43501,1413.74999 1616.245,1415.97 C1614.05499,1418.19001 1611.44502,1419.92999 1608.415,1421.19 C1605.38498,1422.45001 1602.07002,1423.08 1598.47,1423.08 C1594.86998,1423.08 1591.54002,1422.45001 1588.48,1421.19 C1585.41998,1419.92999 1582.79501,1418.19001 1580.605,1415.97 C1578.41499,1413.74999 1576.70501,1411.12502 1575.475,1408.095 C1574.24499,1405.06498 1573.63,1401.81002 1573.63,1398.33 C1573.63,1394.84998 1574.24499,1391.59502 1575.475,1388.565 C1576.70501,1385.53498 1578.41499,1382.91001 1580.605,1380.69 C1582.79501,1378.46999 1585.41998,1376.73001 1588.48,1375.47 C1591.54002,1374.20999 1594.86998,1373.58 1598.47,1373.58 Z M1610.17,1398.33 C1610.17,1396.40999 1609.885,1394.61001 1609.315,1392.93 C1608.745,1391.24999 1607.95001,1389.79501 1606.93,1388.565 C1605.90999,1387.33499 1604.68,1386.36 1603.24,1385.64 C1601.79999,1384.92 1600.21001,1384.56 1598.47,1384.56 C1596.72999,1384.56 1595.12501,1384.92 1593.655,1385.64 C1592.18499,1386.36 1590.94001,1387.33499 1589.92,1388.565 C1588.89999,1389.79501 1588.105,1391.24999 1587.535,1392.93 C1586.965,1394.61001 1586.68,1396.40999 1586.68,1398.33 C1586.68,1400.25001 1586.965,1402.04999 1587.535,1403.73 C1588.105,1405.41001 1588.89999,1406.86499 1589.92,1408.095 C1590.94001,1409.32501 1592.18499,1410.3 1593.655,1411.02 C1595.12501,1411.74 1596.72999,1412.1 1598.47,1412.1 C1600.21001,1412.1 1601.79999,1411.74 1603.24,1411.02 C1604.68,1410.3 1605.90999,1409.32501 1606.93,1408.095 C1607.95001,1406.86499 1608.745,1405.41001 1609.315,1403.73 C1609.885,1402.04999 1610.17,1400.25001 1610.17,1398.33 Z M1646.46,1380.96 C1647.84001,1378.73999 1649.44499,1376.95501 1651.275,1375.605 C1653.10501,1374.25499 1655.18999,1373.58 1657.53,1373.58 C1658.73001,1373.58 1659.83999,1373.685 1660.86,1373.895 C1661.88001,1374.105 1662.81,1374.36 1663.65,1374.66 L1660.59,1385.82 C1659.20999,1385.1 1657.71001,1384.74 1656.09,1384.74 C1654.22999,1384.74 1652.52001,1385.22 1650.96,1386.18 C1649.4,1387.14 1648.14,1388.39999 1647.18,1389.96 L1647.18,1422 L1634.4,1422 L1634.4,1374.66 L1645.47,1374.66 L1646.46,1380.96 Z M1697.26,1405.08 C1698.16,1405.98 1699.13499,1406.865 1700.185,1407.735 C1701.23501,1408.605 1702.34499,1409.385 1703.515,1410.075 C1704.68501,1410.765 1705.92999,1411.335 1707.25,1411.785 C1708.57001,1412.235 1709.97999,1412.46 1711.48,1412.46 C1714.90002,1412.46 1717.50999,1411.80001 1719.31,1410.48 C1721.11001,1409.15999 1722.01,1407.24001 1722.01,1404.72 C1722.01,1403.33999 1721.605,1402.17 1720.795,1401.21 C1719.985,1400.25 1718.93501,1399.41 1717.645,1398.69 C1716.35499,1397.97 1714.87001,1397.31 1713.19,1396.71 C1711.50999,1396.11 1709.80001,1395.48 1708.06,1394.82 C1706.25999,1394.16 1704.47501,1393.41 1702.705,1392.57 C1700.93499,1391.73 1699.34501,1390.68001 1697.935,1389.42 C1696.52499,1388.15999 1695.4,1386.64501 1694.56,1384.875 C1693.72,1383.10499 1693.3,1380.96001 1693.3,1378.44 C1693.3,1375.85999 1693.735,1373.55001 1694.605,1371.51 C1695.475,1369.46999 1696.66,1367.73001 1698.16,1366.29 C1699.66,1364.84999 1701.44499,1363.71 1703.515,1362.87 C1705.58501,1362.03 1707.81999,1361.52 1710.22,1361.34 L1710.22,1352.7 L1717.69,1352.7 L1717.69,1361.52 C1720.51001,1361.94 1723.17999,1362.70499 1725.7,1363.815 C1728.22001,1364.92501 1730.73999,1366.37999 1733.26,1368.18 L1726.15,1376.91 C1724.28999,1375.40999 1722.31001,1374.15001 1720.21,1373.13 C1718.10999,1372.10999 1715.77001,1371.6 1713.19,1371.6 C1712.29,1371.6 1711.39,1371.735 1710.49,1372.005 C1709.59,1372.275 1708.78,1372.665 1708.06,1373.175 C1707.34,1373.685 1706.755,1374.33 1706.305,1375.11 C1705.855,1375.89 1705.63,1376.81999 1705.63,1377.9 C1705.63,1378.98001 1706.02,1379.895 1706.8,1380.645 C1707.58,1381.395 1708.61499,1382.085 1709.905,1382.715 C1711.19501,1383.345 1712.66499,1383.93 1714.315,1384.47 C1715.96501,1385.01 1717.66,1385.61 1719.4,1386.27 C1721.26001,1386.99 1723.13499,1387.815 1725.025,1388.745 C1726.91501,1389.675 1728.59499,1390.81499 1730.065,1392.165 C1731.53501,1393.51501 1732.735,1395.14999 1733.665,1397.07 C1734.595,1398.99001 1735.06,1401.26999 1735.06,1403.91 C1735.06,1406.67001 1734.58,1409.12999 1733.62,1411.29 C1732.66,1413.45001 1731.35501,1415.29499 1729.705,1416.825 C1728.05499,1418.35501 1726.13501,1419.6 1723.945,1420.56 C1721.75499,1421.52 1719.46001,1422.18 1717.06,1422.54 L1717.06,1431.54 L1709.68,1431.54 L1709.68,1422.9 C1705.59998,1422.6 1701.92502,1421.61001 1698.655,1419.93 C1695.38498,1418.24999 1692.22002,1415.91001 1689.16,1412.91 L1697.26,1405.08 Z M1752.36,1422 L1752.36,1376.91 C1750.97999,1377.57 1749.52501,1378.23 1747.995,1378.89 C1746.46499,1379.55 1745.10001,1380.12 1743.9,1380.6 L1743.9,1369.08 C1745.82001,1368.05999 1747.90499,1366.96501 1750.155,1365.795 C1752.40501,1364.62499 1754.60999,1363.44001 1756.77,1362.24 L1765.14,1362.24 L1765.14,1422 L1752.36,1422 Z M1815.38,1372.95 L1794.68,1372.95 C1794.56,1375.23001 1794.44,1377.34499 1794.32,1379.295 C1794.2,1381.24501 1794.02,1383.23999 1793.78,1385.28 C1795.94001,1384.32 1798.24999,1383.84 1800.71,1383.84 C1803.23001,1383.84 1805.55499,1384.335 1807.685,1385.325 C1809.81501,1386.315 1811.64499,1387.66499 1813.175,1389.375 C1814.70501,1391.08501 1815.905,1393.04999 1816.775,1395.27 C1817.645,1397.49001 1818.08,1399.79999 1818.08,1402.2 C1818.08,1405.20001 1817.54001,1407.97499 1816.46,1410.525 C1815.37999,1413.07501 1813.89501,1415.27999 1812.005,1417.14 C1810.11499,1419.00001 1807.88001,1420.45499 1805.3,1421.505 C1802.71999,1422.55501 1799.93001,1423.08 1796.93,1423.08 C1792.42998,1423.08 1788.41002,1422.07501 1784.87,1420.065 C1781.32998,1418.05499 1778.60001,1415.10002 1776.68,1411.2 L1787.39,1405.8 C1788.35,1408.26001 1789.69999,1409.955 1791.44,1410.885 C1793.18,1411.815 1794.91999,1412.28 1796.66,1412.28 C1797.98001,1412.28 1799.16499,1412.025 1800.215,1411.515 C1801.26501,1411.005 1802.15,1410.33 1802.87,1409.49 C1803.59,1408.65 1804.145,1407.69001 1804.535,1406.61 C1804.925,1405.52999 1805.12,1404.39001 1805.12,1403.19 C1805.12,1400.66999 1804.35501,1398.58501 1802.825,1396.935 C1801.29499,1395.28499 1799.21001,1394.46 1796.57,1394.46 C1795.12999,1394.46 1793.78001,1394.73 1792.52,1395.27 C1791.25999,1395.81 1790.06001,1396.76999 1788.92,1398.15 L1780.64,1392.3 C1780.88,1390.13999 1781.105,1387.72501 1781.315,1385.055 C1781.525,1382.38499 1781.72,1379.70001 1781.9,1377 C1782.08,1374.29999 1782.23,1371.66001 1782.35,1369.08 C1782.47,1366.49999 1782.56,1364.22001 1782.62,1362.24 L1815.38,1362.24 L1815.38,1372.95 Z M1833.4,1415.97 C1838.32002,1413.86999 1842.62498,1411.39501 1846.315,1408.545 C1850.00502,1405.69499 1852.74999,1402.05002 1854.55,1397.61 C1853.16999,1398.75001 1851.65501,1399.635 1850.005,1400.265 C1848.35499,1400.895 1846.51001,1401.21 1844.47,1401.21 C1841.70999,1401.21 1839.17501,1400.70001 1836.865,1399.68 C1834.55499,1398.66 1832.56001,1397.28001 1830.88,1395.54 C1829.19999,1393.79999 1827.895,1391.77501 1826.965,1389.465 C1826.035,1387.15499 1825.57,1384.68001 1825.57,1382.04 C1825.57,1379.15999 1826.065,1376.46001 1827.055,1373.94 C1828.045,1371.41999 1829.45499,1369.21501 1831.285,1367.325 C1833.11501,1365.43499 1835.30499,1363.93501 1837.855,1362.825 C1840.40501,1361.71499 1843.23998,1361.16 1846.36,1361.16 C1850.02002,1361.16 1853.28999,1361.83499 1856.17,1363.185 C1859.05001,1364.53501 1861.47999,1366.33499 1863.46,1368.585 C1865.44001,1370.83501 1866.95499,1373.44499 1868.005,1376.415 C1869.05501,1379.38501 1869.58,1382.51998 1869.58,1385.82 C1869.58,1390.68002 1868.72501,1395.17998 1867.015,1399.32 C1865.30499,1403.46002 1863.01001,1407.22498 1860.13,1410.615 C1857.24999,1414.00502 1853.89002,1416.97499 1850.05,1419.525 C1846.20998,1422.07501 1842.16002,1424.21999 1837.9,1425.96 L1833.4,1415.97 Z M1856.8,1385.55 C1856.98,1383.74999 1856.905,1382.02501 1856.575,1380.375 C1856.245,1378.72499 1855.675,1377.25501 1854.865,1375.965 C1854.055,1374.67499 1852.99001,1373.64 1851.67,1372.86 C1850.35,1372.08 1848.79001,1371.69 1846.99,1371.69 C1845.60999,1371.69 1844.39501,1371.945 1843.345,1372.455 C1842.29499,1372.965 1841.395,1373.67 1840.645,1374.57 C1839.895,1375.47 1839.325,1376.48999 1838.935,1377.63 C1838.545,1378.77001 1838.35,1379.96999 1838.35,1381.23 C1838.35,1384.29002 1839.23499,1386.62999 1841.005,1388.25 C1842.77501,1389.87001 1844.91999,1390.68 1847.44,1390.68 C1849.30001,1390.68 1851.06999,1390.23 1852.75,1389.33 C1854.43001,1388.43 1855.77999,1387.17001 1856.8,1385.55 Z" id="Getventurecapitalist.iofor$159" fill="#FFFFFF" fill-rule="nonzero"></path>
    </g>
</svg>