<?xml version="1.0" encoding="UTF-8"?>
<svg width="916px" height="267px" viewBox="0 0 916 267" version="1.1" xmlns="http://www.w3.org/2000/svg" xmlns:xlink="http://www.w3.org/1999/xlink">
    <!-- Generator: Sketch 55.2 (78181) - https://sketchapp.com -->
    <title>Artboard Copy 5</title>
    <desc>Created with Sketch.</desc>
    <defs>
        <linearGradient x1="18.2042255%" y1="70.8401464%" x2="90.9828901%" y2="-8.6815%" id="linearGradient-1">
            <stop stop-color="#000000" offset="0%"></stop>
            <stop stop-color="#FF6D16" offset="100%"></stop>
        </linearGradient>
    </defs>
    <g id="Artboard-Copy-5" stroke="none" stroke-width="1" fill="none" fill-rule="evenodd">
        <g id="abstract" transform="translate(43.000000, 12.000000)" fill="url(#linearGradient-1)" fill-rule="nonzero">
            <path d="M239.564051,0 L175.331447,0 C143.567871,0 117.724479,25.8433917 117.724479,57.6069681 L117.724479,116.965989 L58.365458,116.965989 C26.6018815,116.965989 0.75848984,142.809381 0.75848984,174.572957 L0.75848984,238.805561 C0.75848984,241.499434 2.93819979,243.679144 5.63207273,243.679144 L69.8646768,243.679144 C101.628253,243.679144 127.471645,217.835753 127.471645,186.072176 L127.471645,126.713155 L186.830666,126.713155 C218.594243,126.713155 244.437634,100.869763 244.437634,69.106187 L244.437634,4.87358289 C244.437634,2.17970995 242.257924,0 239.564051,0 Z M117.724479,186.072176 C117.724479,212.462628 96.2551281,233.931979 69.8646768,233.931979 L10.5056556,233.931979 L10.5056556,174.572957 C10.5056556,148.182506 31.9750066,126.713155 58.365458,126.713155 L117.724479,126.713155 L117.724479,186.072176 Z" id="Shape"></path>
        </g>
        <path d="M376.966667,127.4 C374.299987,124.999988 371.166685,122.933342 367.566667,121.2 C363.966649,119.466658 360.166687,118.6 356.166667,118.6 C353.499987,118.6 351.133344,119.299993 349.066667,120.7 C346.99999,122.100007 345.966667,124.066654 345.966667,126.6 C345.966667,129.93335 347.633317,132.566657 350.966667,134.5 C354.300017,136.433343 358.166645,138.333324 362.566667,140.2 C365.900017,141.666674 369.399982,143.233325 373.066667,144.9 C376.733352,146.566675 380.066652,148.599988 383.066667,151 C386.066682,153.400012 388.533324,156.366649 390.466667,159.9 C392.40001,163.433351 393.366667,167.666642 393.366667,172.6 C393.366667,178.466696 392.233345,183.499979 389.966667,187.7 C387.699989,191.900021 384.666686,195.399986 380.866667,198.2 C377.066648,201.000014 372.733358,203.06666 367.866667,204.4 C362.999976,205.73334 358.033359,206.4 352.966667,206.4 C344.699959,206.4 337.033369,204.866682 329.966667,201.8 C322.899965,198.733318 316.433363,194.266696 310.566667,188.4 L326.766667,171.6 C330.766687,175.466686 334.633315,178.499989 338.366667,180.7 C342.100019,182.900011 346.499975,184 351.566667,184 C353.033341,184 354.566667,183.833335 356.166667,183.5 C357.766675,183.166665 359.199994,182.600004 360.466667,181.8 C361.73334,180.999996 362.799996,180.033339 363.666667,178.9 C364.533338,177.766661 364.966667,176.4 364.966667,174.8 C364.966667,172.933324 364.400006,171.300007 363.266667,169.9 C362.133328,168.499993 360.666676,167.233339 358.866667,166.1 C357.066667,164.966661 354.933346,163.9 352.466667,162.9 C349.999988,161.9 347.500013,160.800006 344.966667,159.6 C341.766651,158.26666 338.600016,156.766675 335.466667,155.1 C332.333318,153.433325 329.533346,151.400012 327.066667,149 C324.599988,146.599988 322.566667,143.766683 320.966667,140.5 C319.366659,137.233317 318.566667,133.26669 318.566667,128.6 C318.566667,123.26664 319.633323,118.60002 321.766667,114.6 C323.900011,110.59998 326.699983,107.233347 330.166667,104.5 C333.633351,101.766653 337.633311,99.73334 342.166667,98.4 C346.700023,97.06666 351.366643,96.4 356.166667,96.4 C363.233369,96.4 369.833303,97.533322 375.966667,99.8 C382.100031,102.066678 387.633309,105.53331 392.566667,110.2 L376.966667,127.4 Z M457.7,204 L429.3,204 L429.3,54 L457.7,54 L457.7,204 Z M520.233333,158.4 C521.300005,165.600036 524.066644,171.599976 528.533333,176.4 C533.000022,181.200024 539.033295,183.6 546.633333,183.6 C553.433367,183.6 558.833313,182.26668 562.833333,179.6 C566.833353,176.93332 570.566649,173.066692 574.033333,168 L592.633333,180.6 C586.633303,189.400044 579.966703,195.899979 572.633333,200.1 C565.299963,204.300021 555.966723,206.4 544.633333,206.4 C536.633293,206.4 529.366699,205.06668 522.833333,202.4 C516.299967,199.73332 510.700023,196.033357 506.033333,191.3 C501.366643,186.566643 497.766679,180.900033 495.233333,174.3 C492.699987,167.699967 491.433333,160.466706 491.433333,152.6 C491.433333,144.59996 492.799986,137.200034 495.533333,130.4 C498.26668,123.599966 502.033309,117.666692 506.833333,112.6 C511.633357,107.533308 517.266634,103.566681 523.733333,100.7 C530.200032,97.833319 537.233295,96.4 544.833333,96.4 C552.166703,96.4 558.933302,97.633321 565.133333,100.1 C571.333364,102.566679 576.699977,105.933312 581.233333,110.2 C585.766689,114.466688 589.299987,119.59997 591.833333,125.6 C594.366679,131.60003 595.633333,138.066632 595.633333,145 C595.633333,147.133344 595.500001,149.366655 595.233333,151.7 C594.966665,154.033345 594.633335,156.266656 594.233333,158.4 L520.233333,158.4 Z M566.633333,139 C566.366665,132.599968 564.266686,127.600018 560.333333,124 C556.39998,120.399982 551.500029,118.6 545.633333,118.6 C538.833299,118.6 533.500019,120.499981 529.633333,124.3 C525.766647,128.100019 523.100007,132.99997 521.633333,139 L566.633333,139 Z M651.166667,158.4 C652.233339,165.600036 654.999978,171.599976 659.466667,176.4 C663.933356,181.200024 669.966629,183.6 677.566667,183.6 C684.366701,183.6 689.766647,182.26668 693.766667,179.6 C697.766687,176.93332 701.499983,173.066692 704.966667,168 L723.566667,180.6 C717.566637,189.400044 710.900037,195.899979 703.566667,200.1 C696.233297,204.300021 686.900057,206.4 675.566667,206.4 C667.566627,206.4 660.300033,205.06668 653.766667,202.4 C647.233301,199.73332 641.633357,196.033357 636.966667,191.3 C632.299977,186.566643 628.700013,180.900033 626.166667,174.3 C623.633321,167.699967 622.366667,160.466706 622.366667,152.6 C622.366667,144.59996 623.73332,137.200034 626.466667,130.4 C629.200014,123.599966 632.966643,117.666692 637.766667,112.6 C642.566691,107.533308 648.199968,103.566681 654.666667,100.7 C661.133366,97.833319 668.166629,96.4 675.766667,96.4 C683.100037,96.4 689.866636,97.633321 696.066667,100.1 C702.266698,102.566679 707.633311,105.933312 712.166667,110.2 C716.700023,114.466688 720.233321,119.59997 722.766667,125.6 C725.300013,131.60003 726.566667,138.066632 726.566667,145 C726.566667,147.133344 726.433335,149.366655 726.166667,151.7 C725.899999,154.033345 725.566669,156.266656 725.166667,158.4 L651.166667,158.4 Z M697.566667,139 C697.299999,132.599968 695.20002,127.600018 691.266667,124 C687.333314,120.399982 682.433363,118.6 676.566667,118.6 C669.766633,118.6 664.433353,120.499981 660.566667,124.3 C656.699981,128.100019 654.033341,132.99997 652.566667,139 L697.566667,139 Z M823.3,204 L799.1,165 L788.9,176.8 L788.9,204 L760.5,204 L760.5,54 L788.9,54 L788.9,141.6 L789.3,141.6 L823.3,98.8 L855.7,98.8 L818.1,142.8 L858.1,204 L823.3,204 Z" id="sleek" fill="#272727" fill-rule="nonzero"></path>
    </g>
</svg>