<?xml version="1.0" encoding="UTF-8"?>
<svg width="128px" height="128px" viewBox="0 0 128 128" version="1.1" xmlns="http://www.w3.org/2000/svg" xmlns:xlink="http://www.w3.org/1999/xlink">
    <!-- Generator: Sketch 55.2 (78181) - https://sketchapp.com -->
    <title>Artboard Copy 8</title>
    <desc>Created with Sketch.</desc>
    <g id="Artboard-Copy-8" stroke="none" stroke-width="1" fill="none" fill-rule="evenodd">
        <path d="M6.30391667,69 L4.95841667,69 L1.93391667,60.95 L3.84291667,60.95 L5.75191667,66.4815 L5.76341667,66.4815 L7.76441667,60.95 L9.58141667,60.95 L6.30391667,69 Z M10.7914722,69 L10.7914722,60.95 L12.4359722,60.95 L12.4359722,69 L10.7914722,69 Z M14.4855278,69 L14.4855278,60.95 L19.6490278,60.95 L19.6490278,62.3415 L16.1300278,62.3415 L16.1300278,64.1585 L19.6490278,64.1585 L19.6490278,65.55 L16.1300278,65.55 L16.1300278,67.6085 L19.6490278,67.6085 L19.6490278,69 L14.4855278,69 Z M28.3915833,66.102 L28.4145833,66.102 L29.7715833,60.95 L31.6115833,60.95 L29.3000833,69 L27.6670833,69 L26.2065833,63.71 L26.1835833,63.71 L24.6770833,69 L23.1015833,69 L20.8475833,60.95 L22.6875833,60.95 L24.0100833,66.102 L24.0330833,66.102 L25.4705833,60.95 L27.0115833,60.95 L28.3915833,66.102 Z M35.9406944,69 L35.9406944,60.95 L41.1041944,60.95 L41.1041944,62.3415 L37.5851944,62.3415 L37.5851944,64.1585 L41.1041944,64.1585 L41.1041944,65.55 L37.5851944,65.55 L37.5851944,67.6085 L41.1041944,67.6085 L41.1041944,69 L35.9406944,69 Z M47.35125,64.883 L50.32975,69 L48.16775,69 L46.22425,66.2515 L44.28075,69 L42.21075,69 L45.17775,64.952 L42.30275,60.95 L44.46475,60.95 L46.31625,63.595 L48.19075,60.95 L50.24925,60.95 L47.35125,64.883 Z M56.4848056,69 L55.9673056,67.505 L53.1038056,67.505 L52.5633056,69 L50.7348056,69 L54.0238056,60.95 L55.3578056,60.95 L58.3823056,69 L56.4848056,69 Z M53.5868056,66.1595 L55.5073056,66.1595 L54.5758056,63.457 L54.5643056,63.457 L53.5868056,66.1595 Z M64.8938611,69 L63.7208611,69 L61.3748611,63.1005 L61.3748611,69 L59.7303611,69 L59.7303611,60.95 L62.1568611,60.95 L64.3188611,66.562 L66.5613611,60.95 L68.9418611,60.95 L68.9418611,69 L67.2973611,69 L67.2973611,63.1235 L64.8938611,69 Z M73.5444167,60.95 C73.8894184,60.95 74.2401649,60.9940829 74.5966667,61.08225 C74.9531684,61.1704171 75.2770819,61.3141657 75.5684167,61.5135 C75.8597515,61.7128343 76.0974157,61.9696651 76.2814167,62.284 C76.4654176,62.5983349 76.5574167,62.9854977 76.5574167,63.4455 C76.5574167,63.9055023 76.4654176,64.2964984 76.2814167,64.6185 C76.0974157,64.9405016 75.8597515,65.2011657 75.5684167,65.4005 C75.2770819,65.5998343 74.9531684,65.7435829 74.5966667,65.83175 C74.2401649,65.9199171 73.8894184,65.964 73.5444167,65.964 L72.6244167,65.964 L72.6244167,69 L70.9799167,69 L70.9799167,60.95 L73.5444167,60.95 Z M72.6244167,64.5725 L73.2799167,64.5725 C73.4945844,64.5725 73.6958324,64.5533335 73.8836667,64.515 C74.0715009,64.4766665 74.234416,64.4153338 74.3724167,64.331 C74.5104174,64.2466662 74.6177496,64.133584 74.6944167,63.99175 C74.7710837,63.849916 74.8094167,63.6793343 74.8094167,63.48 C74.8094167,63.1196649 74.6886679,62.8398343 74.4471667,62.6405 C74.2056655,62.4411657 73.8894186,62.3415 73.4984167,62.3415 L72.6244167,62.3415 L72.6244167,64.5725 Z M77.9399722,69 L77.9399722,60.95 L79.5844722,60.95 L79.5844722,67.6085 L82.8849722,67.6085 L82.8849722,69 L77.9399722,69 Z M84.0835278,69 L84.0835278,60.95 L89.2470278,60.95 L89.2470278,62.3415 L85.7280278,62.3415 L85.7280278,64.1585 L89.2470278,64.1585 L89.2470278,65.55 L85.7280278,65.55 L85.7280278,67.6085 L89.2470278,67.6085 L89.2470278,69 L84.0835278,69 Z" id="VIEWEXAMPLE" fill="#FFFFFF" fill-rule="nonzero"></path>
        <path d="M92,65 L125.5,65" id="Line" stroke="#FFFFFF" stroke-width="2" stroke-linecap="square"></path>
        <polyline id="Path-2" stroke="#FFFFFF" stroke-width="2" points="115.756021 57.0147217 126.349892 65 115.756021 71.9369317"></polyline>
    </g>
</svg>